<svg xmlns="http://www.w3.org/2000/svg" width="760" height="600" viewBox="0 0 760 600">
<style>text{font-family:Helvetica,Arial,sans-serif;font-size:11px;fill:#111827}.title{font-size:16px;font-weight:700}.small{font-size:10px;fill:#4b5563}</style>
<rect width="100%" height="100%" fill="white"/>
<text class="title" x="20" y="28">Pattern4 top gene directionality, all experimental cells</text>
<text class="small" x="20" y="48">Color scale: blue=down, white=near 0, red=up; capped at +/-1.5 log2FC</text>
<text text-anchor="middle" x="265.0" y="58">D2</text>
<text text-anchor="middle" x="335.0" y="58">D4</text>
<text text-anchor="middle" x="405.0" y="58">D6</text>
<text text-anchor="middle" x="475.0" y="58">D8</text>
<text text-anchor="middle" x="545.0" y="58">D10</text>
<text text-anchor="middle" x="615.0" y="58">D14/15</text>
<text text-anchor="middle" x="685.0" y="58">D28</text>
<text text-anchor="end" x="222" y="83">Pattern4 1. TNFAIP3</text>
<rect x="230" y="70" width="70" height="18" fill="#f0cfcf" stroke="#ffffff" stroke-width="1"/>
<text class="small" text-anchor="middle" x="265.0" y="83">0.32</text>
<rect x="300" y="70" width="70" height="18" fill="#f4dcdc" stroke="#ffffff" stroke-width="1"/>
<text class="small" text-anchor="middle" x="335.0" y="83">0.23</text>
<rect x="370" y="70" width="70" height="18" fill="#f4dbdb" stroke="#ffffff" stroke-width="1"/>
<text class="small" text-anchor="middle" x="405.0" y="83">0.24</text>
<rect x="440" y="70" width="70" height="18" fill="#f6e2e2" stroke="#ffffff" stroke-width="1"/>
<text class="small" text-anchor="middle" x="475.0" y="83">0.19</text>
<rect x="510" y="70" width="70" height="18" fill="#c2d4f9" stroke="#ffffff" stroke-width="1"/>
<text class="small" text-anchor="middle" x="545.0" y="83">-0.42</text>
<rect x="580" y="70" width="70" height="18" fill="#faf0f0" stroke="#ffffff" stroke-width="1"/>
<text class="small" text-anchor="middle" x="615.0" y="83">0.10</text>
<rect x="650" y="70" width="70" height="18" fill="#f4f7fe" stroke="#ffffff" stroke-width="1"/>
<text class="small" text-anchor="middle" x="685.0" y="83">-0.07</text>
<text text-anchor="end" x="222" y="101">Pattern4 2. H3F3B</text>
<rect x="230" y="88" width="70" height="18" fill="#fbf1f1" stroke="#ffffff" stroke-width="1"/>
<text class="small" text-anchor="middle" x="265.0" y="101">0.09</text>
<rect x="300" y="88" width="70" height="18" fill="#f8fafe" stroke="#ffffff" stroke-width="1"/>
<text class="small" text-anchor="middle" x="335.0" y="101">-0.05</text>
<rect x="370" y="88" width="70" height="18" fill="#fefbfb" stroke="#ffffff" stroke-width="1"/>
<text class="small" text-anchor="middle" x="405.0" y="101">0.03</text>
<rect x="440" y="88" width="70" height="18" fill="#fcf6f6" stroke="#ffffff" stroke-width="1"/>
<text class="small" text-anchor="middle" x="475.0" y="101">0.06</text>
<rect x="510" y="88" width="70" height="18" fill="#f8e8e8" stroke="#ffffff" stroke-width="1"/>
<text class="small" text-anchor="middle" x="545.0" y="101">0.15</text>
<rect x="580" y="88" width="70" height="18" fill="#e9b7b7" stroke="#ffffff" stroke-width="1"/>
<text class="small" text-anchor="middle" x="615.0" y="101">0.48</text>
<rect x="650" y="88" width="70" height="18" fill="#eec9c9" stroke="#ffffff" stroke-width="1"/>
<text class="small" text-anchor="middle" x="685.0" y="101">0.36</text>
<text text-anchor="end" x="222" y="119">Pattern4 3. FTH1</text>
<rect x="230" y="106" width="70" height="18" fill="#f2f5fe" stroke="#ffffff" stroke-width="1"/>
<text class="small" text-anchor="middle" x="265.0" y="119">-0.09</text>
<rect x="300" y="106" width="70" height="18" fill="#d4e0fb" stroke="#ffffff" stroke-width="1"/>
<text class="small" text-anchor="middle" x="335.0" y="119">-0.30</text>
<rect x="370" y="106" width="70" height="18" fill="#f0f4fe" stroke="#ffffff" stroke-width="1"/>
<text class="small" text-anchor="middle" x="405.0" y="119">-0.10</text>
<rect x="440" y="106" width="70" height="18" fill="#e4ecfd" stroke="#ffffff" stroke-width="1"/>
<text class="small" text-anchor="middle" x="475.0" y="119">-0.18</text>
<rect x="510" y="106" width="70" height="18" fill="#f5f8fe" stroke="#ffffff" stroke-width="1"/>
<text class="small" text-anchor="middle" x="545.0" y="119">-0.07</text>
<rect x="580" y="106" width="70" height="18" fill="#e7eefd" stroke="#ffffff" stroke-width="1"/>
<text class="small" text-anchor="middle" x="615.0" y="119">-0.17</text>
<rect x="650" y="106" width="70" height="18" fill="#fbf2f2" stroke="#ffffff" stroke-width="1"/>
<text class="small" text-anchor="middle" x="685.0" y="119">0.09</text>
<text text-anchor="end" x="222" y="137">Pattern4 4. MALAT1</text>
<rect x="230" y="124" width="70" height="18" fill="#fcf5f5" stroke="#ffffff" stroke-width="1"/>
<text class="small" text-anchor="middle" x="265.0" y="137">0.07</text>
<rect x="300" y="124" width="70" height="18" fill="#fcf4f4" stroke="#ffffff" stroke-width="1"/>
<text class="small" text-anchor="middle" x="335.0" y="137">0.07</text>
<rect x="370" y="124" width="70" height="18" fill="#fcf7f7" stroke="#ffffff" stroke-width="1"/>
<text class="small" text-anchor="middle" x="405.0" y="137">0.06</text>
<rect x="440" y="124" width="70" height="18" fill="#edf2fd" stroke="#ffffff" stroke-width="1"/>
<text class="small" text-anchor="middle" x="475.0" y="137">-0.13</text>
<rect x="510" y="124" width="70" height="18" fill="#d4e0fb" stroke="#ffffff" stroke-width="1"/>
<text class="small" text-anchor="middle" x="545.0" y="137">-0.30</text>
<rect x="580" y="124" width="70" height="18" fill="#e2eafc" stroke="#ffffff" stroke-width="1"/>
<text class="small" text-anchor="middle" x="615.0" y="137">-0.20</text>
<rect x="650" y="124" width="70" height="18" fill="#f6f9fe" stroke="#ffffff" stroke-width="1"/>
<text class="small" text-anchor="middle" x="685.0" y="137">-0.06</text>
<text text-anchor="end" x="222" y="155">Pattern4 5. NFKBIA</text>
<rect x="230" y="142" width="70" height="18" fill="#f7fafe" stroke="#ffffff" stroke-width="1"/>
<text class="small" text-anchor="middle" x="265.0" y="155">-0.05</text>
<rect x="300" y="142" width="70" height="18" fill="#e8effd" stroke="#ffffff" stroke-width="1"/>
<text class="small" text-anchor="middle" x="335.0" y="155">-0.16</text>
<rect x="370" y="142" width="70" height="18" fill="#e9effd" stroke="#ffffff" stroke-width="1"/>
<text class="small" text-anchor="middle" x="405.0" y="155">-0.15</text>
<rect x="440" y="142" width="70" height="18" fill="#fefeff" stroke="#ffffff" stroke-width="1"/>
<text class="small" text-anchor="middle" x="475.0" y="155">-0.01</text>
<rect x="510" y="142" width="70" height="18" fill="#bbcef9" stroke="#ffffff" stroke-width="1"/>
<text class="small" text-anchor="middle" x="545.0" y="155">-0.47</text>
<rect x="580" y="142" width="70" height="18" fill="#ecf1fd" stroke="#ffffff" stroke-width="1"/>
<text class="small" text-anchor="middle" x="615.0" y="155">-0.13</text>
<rect x="650" y="142" width="70" height="18" fill="#8bacf4" stroke="#ffffff" stroke-width="1"/>
<text class="small" text-anchor="middle" x="685.0" y="155">-0.80</text>
<text text-anchor="end" x="222" y="173">Pattern4 6. SRGN</text>
<rect x="230" y="160" width="70" height="18" fill="#fcf4f4" stroke="#ffffff" stroke-width="1"/>
<text class="small" text-anchor="middle" x="265.0" y="173">0.07</text>
<rect x="300" y="160" width="70" height="18" fill="#ebf1fd" stroke="#ffffff" stroke-width="1"/>
<text class="small" text-anchor="middle" x="335.0" y="173">-0.14</text>
<rect x="370" y="160" width="70" height="18" fill="#fcf4f4" stroke="#ffffff" stroke-width="1"/>
<text class="small" text-anchor="middle" x="405.0" y="173">0.07</text>
<rect x="440" y="160" width="70" height="18" fill="#fbfcff" stroke="#ffffff" stroke-width="1"/>
<text class="small" text-anchor="middle" x="475.0" y="173">-0.03</text>
<rect x="510" y="160" width="70" height="18" fill="#eaf0fd" stroke="#ffffff" stroke-width="1"/>
<text class="small" text-anchor="middle" x="545.0" y="173">-0.14</text>
<rect x="580" y="160" width="70" height="18" fill="#ffffff" stroke="#ffffff" stroke-width="1"/>
<text class="small" text-anchor="middle" x="615.0" y="173">-0.00</text>
<rect x="650" y="160" width="70" height="18" fill="#fcf5f5" stroke="#ffffff" stroke-width="1"/>
<text class="small" text-anchor="middle" x="685.0" y="173">0.07</text>
<text text-anchor="end" x="222" y="191">Pattern4 7. ZFP36</text>
<rect x="230" y="178" width="70" height="18" fill="#faefef" stroke="#ffffff" stroke-width="1"/>
<text class="small" text-anchor="middle" x="265.0" y="191">0.10</text>
<rect x="300" y="178" width="70" height="18" fill="#eaf0fd" stroke="#ffffff" stroke-width="1"/>
<text class="small" text-anchor="middle" x="335.0" y="191">-0.15</text>
<rect x="370" y="178" width="70" height="18" fill="#fdf9f9" stroke="#ffffff" stroke-width="1"/>
<text class="small" text-anchor="middle" x="405.0" y="191">0.04</text>
<rect x="440" y="178" width="70" height="18" fill="#fbf1f1" stroke="#ffffff" stroke-width="1"/>
<text class="small" text-anchor="middle" x="475.0" y="191">0.09</text>
<rect x="510" y="178" width="70" height="18" fill="#d9e4fc" stroke="#ffffff" stroke-width="1"/>
<text class="small" text-anchor="middle" x="545.0" y="191">-0.26</text>
<rect x="580" y="178" width="70" height="18" fill="#fcf5f5" stroke="#ffffff" stroke-width="1"/>
<text class="small" text-anchor="middle" x="615.0" y="191">0.07</text>
<rect x="650" y="178" width="70" height="18" fill="#f4f7fe" stroke="#ffffff" stroke-width="1"/>
<text class="small" text-anchor="middle" x="685.0" y="191">-0.08</text>
<text text-anchor="end" x="222" y="209">Pattern4 8. PTMA</text>
<rect x="230" y="196" width="70" height="18" fill="#fdf8f8" stroke="#ffffff" stroke-width="1"/>
<text class="small" text-anchor="middle" x="265.0" y="209">0.05</text>
<rect x="300" y="196" width="70" height="18" fill="#fefafa" stroke="#ffffff" stroke-width="1"/>
<text class="small" text-anchor="middle" x="335.0" y="209">0.03</text>
<rect x="370" y="196" width="70" height="18" fill="#fbf3f3" stroke="#ffffff" stroke-width="1"/>
<text class="small" text-anchor="middle" x="405.0" y="209">0.08</text>
<rect x="440" y="196" width="70" height="18" fill="#fbf2f2" stroke="#ffffff" stroke-width="1"/>
<text class="small" text-anchor="middle" x="475.0" y="209">0.09</text>
<rect x="510" y="196" width="70" height="18" fill="#fcfcff" stroke="#ffffff" stroke-width="1"/>
<text class="small" text-anchor="middle" x="545.0" y="209">-0.02</text>
<rect x="580" y="196" width="70" height="18" fill="#f2d6d6" stroke="#ffffff" stroke-width="1"/>
<text class="small" text-anchor="middle" x="615.0" y="209">0.27</text>
<rect x="650" y="196" width="70" height="18" fill="#f5dfdf" stroke="#ffffff" stroke-width="1"/>
<text class="small" text-anchor="middle" x="685.0" y="209">0.21</text>
<text text-anchor="end" x="222" y="227">Pattern4 9. NR4A2</text>
<rect x="230" y="214" width="70" height="18" fill="#ebbdbd" stroke="#ffffff" stroke-width="1"/>
<text class="small" text-anchor="middle" x="265.0" y="227">0.44</text>
<rect x="300" y="214" width="70" height="18" fill="#ebbfbf" stroke="#ffffff" stroke-width="1"/>
<text class="small" text-anchor="middle" x="335.0" y="227">0.42</text>
<rect x="370" y="214" width="70" height="18" fill="#f4dcdc" stroke="#ffffff" stroke-width="1"/>
<text class="small" text-anchor="middle" x="405.0" y="227">0.23</text>
<rect x="440" y="214" width="70" height="18" fill="#f7e6e6" stroke="#ffffff" stroke-width="1"/>
<text class="small" text-anchor="middle" x="475.0" y="227">0.17</text>
<rect x="510" y="214" width="70" height="18" fill="#f8fafe" stroke="#ffffff" stroke-width="1"/>
<text class="small" text-anchor="middle" x="545.0" y="227">-0.05</text>
<rect x="580" y="214" width="70" height="18" fill="#d16a6a" stroke="#ffffff" stroke-width="1"/>
<text class="small" text-anchor="middle" x="615.0" y="227">0.98</text>
<rect x="650" y="214" width="70" height="18" fill="#e4a9a9" stroke="#ffffff" stroke-width="1"/>
<text class="small" text-anchor="middle" x="685.0" y="227">0.57</text>
<text text-anchor="end" x="222" y="245">Pattern4 10. MYADM</text>
<rect x="230" y="232" width="70" height="18" fill="#f8fafe" stroke="#ffffff" stroke-width="1"/>
<text class="small" text-anchor="middle" x="265.0" y="245">-0.05</text>
<rect x="300" y="232" width="70" height="18" fill="#ffffff" stroke="#ffffff" stroke-width="1"/>
<text class="small" text-anchor="middle" x="335.0" y="245">-0.00</text>
<rect x="370" y="232" width="70" height="18" fill="#eff4fe" stroke="#ffffff" stroke-width="1"/>
<text class="small" text-anchor="middle" x="405.0" y="245">-0.11</text>
<rect x="440" y="232" width="70" height="18" fill="#edf2fd" stroke="#ffffff" stroke-width="1"/>
<text class="small" text-anchor="middle" x="475.0" y="245">-0.12</text>
<rect x="510" y="232" width="70" height="18" fill="#ccdbfa" stroke="#ffffff" stroke-width="1"/>
<text class="small" text-anchor="middle" x="545.0" y="245">-0.35</text>
<rect x="580" y="232" width="70" height="18" fill="#e9effd" stroke="#ffffff" stroke-width="1"/>
<text class="small" text-anchor="middle" x="615.0" y="245">-0.15</text>
<rect x="650" y="232" width="70" height="18" fill="#fcfdff" stroke="#ffffff" stroke-width="1"/>
<text class="small" text-anchor="middle" x="685.0" y="245">-0.02</text>
<text text-anchor="end" x="222" y="263">Pattern4 11. MT-CO1</text>
<rect x="230" y="250" width="70" height="18" fill="#fefbfb" stroke="#ffffff" stroke-width="1"/>
<text class="small" text-anchor="middle" x="265.0" y="263">0.03</text>
<rect x="300" y="250" width="70" height="18" fill="#fbfcff" stroke="#ffffff" stroke-width="1"/>
<text class="small" text-anchor="middle" x="335.0" y="263">-0.03</text>
<rect x="370" y="250" width="70" height="18" fill="#fdf9f9" stroke="#ffffff" stroke-width="1"/>
<text class="small" text-anchor="middle" x="405.0" y="263">0.04</text>
<rect x="440" y="250" width="70" height="18" fill="#f6f8fe" stroke="#ffffff" stroke-width="1"/>
<text class="small" text-anchor="middle" x="475.0" y="263">-0.07</text>
<rect x="510" y="250" width="70" height="18" fill="#c5d6fa" stroke="#ffffff" stroke-width="1"/>
<text class="small" text-anchor="middle" x="545.0" y="263">-0.40</text>
<rect x="580" y="250" width="70" height="18" fill="#9ab6f6" stroke="#ffffff" stroke-width="1"/>
<text class="small" text-anchor="middle" x="615.0" y="263">-0.70</text>
<rect x="650" y="250" width="70" height="18" fill="#eaf0fd" stroke="#ffffff" stroke-width="1"/>
<text class="small" text-anchor="middle" x="685.0" y="263">-0.15</text>
<text text-anchor="end" x="222" y="281">Pattern4 12. EEF1A1</text>
<rect x="230" y="268" width="70" height="18" fill="#fcf7f7" stroke="#ffffff" stroke-width="1"/>
<text class="small" text-anchor="middle" x="265.0" y="281">0.05</text>
<rect x="300" y="268" width="70" height="18" fill="#fcf6f6" stroke="#ffffff" stroke-width="1"/>
<text class="small" text-anchor="middle" x="335.0" y="281">0.06</text>
<rect x="370" y="268" width="70" height="18" fill="#faefef" stroke="#ffffff" stroke-width="1"/>
<text class="small" text-anchor="middle" x="405.0" y="281">0.11</text>
<rect x="440" y="268" width="70" height="18" fill="#fefafa" stroke="#ffffff" stroke-width="1"/>
<text class="small" text-anchor="middle" x="475.0" y="281">0.03</text>
<rect x="510" y="268" width="70" height="18" fill="#90b0f5" stroke="#ffffff" stroke-width="1"/>
<text class="small" text-anchor="middle" x="545.0" y="281">-0.76</text>
<rect x="580" y="268" width="70" height="18" fill="#a5bef7" stroke="#ffffff" stroke-width="1"/>
<text class="small" text-anchor="middle" x="615.0" y="281">-0.62</text>
<rect x="650" y="268" width="70" height="18" fill="#f2f5fe" stroke="#ffffff" stroke-width="1"/>
<text class="small" text-anchor="middle" x="685.0" y="281">-0.09</text>
<text text-anchor="end" x="222" y="299">Pattern4 13. REL</text>
<rect x="230" y="286" width="70" height="18" fill="#fdf8f8" stroke="#ffffff" stroke-width="1"/>
<text class="small" text-anchor="middle" x="265.0" y="299">0.05</text>
<rect x="300" y="286" width="70" height="18" fill="#fefeff" stroke="#ffffff" stroke-width="1"/>
<text class="small" text-anchor="middle" x="335.0" y="299">-0.01</text>
<rect x="370" y="286" width="70" height="18" fill="#faf0f0" stroke="#ffffff" stroke-width="1"/>
<text class="small" text-anchor="middle" x="405.0" y="299">0.10</text>
<rect x="440" y="286" width="70" height="18" fill="#fbfcff" stroke="#ffffff" stroke-width="1"/>
<text class="small" text-anchor="middle" x="475.0" y="299">-0.03</text>
<rect x="510" y="286" width="70" height="18" fill="#dee7fc" stroke="#ffffff" stroke-width="1"/>
<text class="small" text-anchor="middle" x="545.0" y="299">-0.23</text>
<rect x="580" y="286" width="70" height="18" fill="#f7e5e5" stroke="#ffffff" stroke-width="1"/>
<text class="small" text-anchor="middle" x="615.0" y="299">0.17</text>
<rect x="650" y="286" width="70" height="18" fill="#fbfcff" stroke="#ffffff" stroke-width="1"/>
<text class="small" text-anchor="middle" x="685.0" y="299">-0.03</text>
<text text-anchor="end" x="222" y="317">Pattern4 14. TSC22D3</text>
<rect x="230" y="304" width="70" height="18" fill="#f0cdcd" stroke="#ffffff" stroke-width="1"/>
<text class="small" text-anchor="middle" x="265.0" y="317">0.33</text>
<rect x="300" y="304" width="70" height="18" fill="#ecc0c0" stroke="#ffffff" stroke-width="1"/>
<text class="small" text-anchor="middle" x="335.0" y="317">0.41</text>
<rect x="370" y="304" width="70" height="18" fill="#f1d1d1" stroke="#ffffff" stroke-width="1"/>
<text class="small" text-anchor="middle" x="405.0" y="317">0.30</text>
<rect x="440" y="304" width="70" height="18" fill="#efcccc" stroke="#ffffff" stroke-width="1"/>
<text class="small" text-anchor="middle" x="475.0" y="317">0.34</text>
<rect x="510" y="304" width="70" height="18" fill="#ffffff" stroke="#ffffff" stroke-width="1"/>
<text class="small" text-anchor="middle" x="545.0" y="317">0.00</text>
<rect x="580" y="304" width="70" height="18" fill="#e8b6b6" stroke="#ffffff" stroke-width="1"/>
<text class="small" text-anchor="middle" x="615.0" y="317">0.48</text>
<rect x="650" y="304" width="70" height="18" fill="#e6adad" stroke="#ffffff" stroke-width="1"/>
<text class="small" text-anchor="middle" x="685.0" y="317">0.54</text>
<text text-anchor="end" x="222" y="335">Pattern4 15. CREM</text>
<rect x="230" y="322" width="70" height="18" fill="#f5dfdf" stroke="#ffffff" stroke-width="1"/>
<text class="small" text-anchor="middle" x="265.0" y="335">0.21</text>
<rect x="300" y="322" width="70" height="18" fill="#ffffff" stroke="#ffffff" stroke-width="1"/>
<text class="small" text-anchor="middle" x="335.0" y="335">0.00</text>
<rect x="370" y="322" width="70" height="18" fill="#f8e7e7" stroke="#ffffff" stroke-width="1"/>
<text class="small" text-anchor="middle" x="405.0" y="335">0.16</text>
<rect x="440" y="322" width="70" height="18" fill="#fffefe" stroke="#ffffff" stroke-width="1"/>
<text class="small" text-anchor="middle" x="475.0" y="335">0.01</text>
<rect x="510" y="322" width="70" height="18" fill="#d9e4fc" stroke="#ffffff" stroke-width="1"/>
<text class="small" text-anchor="middle" x="545.0" y="335">-0.26</text>
<rect x="580" y="322" width="70" height="18" fill="#edc5c5" stroke="#ffffff" stroke-width="1"/>
<text class="small" text-anchor="middle" x="615.0" y="335">0.38</text>
<rect x="650" y="322" width="70" height="18" fill="#f2d5d5" stroke="#ffffff" stroke-width="1"/>
<text class="small" text-anchor="middle" x="685.0" y="335">0.28</text>
<text text-anchor="end" x="222" y="353">Pattern4 16. JUNB</text>
<rect x="230" y="340" width="70" height="18" fill="#fefdfd" stroke="#ffffff" stroke-width="1"/>
<text class="small" text-anchor="middle" x="265.0" y="353">0.01</text>
<rect x="300" y="340" width="70" height="18" fill="#f3f7fe" stroke="#ffffff" stroke-width="1"/>
<text class="small" text-anchor="middle" x="335.0" y="353">-0.08</text>
<rect x="370" y="340" width="70" height="18" fill="#f4f7fe" stroke="#ffffff" stroke-width="1"/>
<text class="small" text-anchor="middle" x="405.0" y="353">-0.08</text>
<rect x="440" y="340" width="70" height="18" fill="#f7f9fe" stroke="#ffffff" stroke-width="1"/>
<text class="small" text-anchor="middle" x="475.0" y="353">-0.05</text>
<rect x="510" y="340" width="70" height="18" fill="#d3e0fb" stroke="#ffffff" stroke-width="1"/>
<text class="small" text-anchor="middle" x="545.0" y="353">-0.30</text>
<rect x="580" y="340" width="70" height="18" fill="#f9ecec" stroke="#ffffff" stroke-width="1"/>
<text class="small" text-anchor="middle" x="615.0" y="353">0.12</text>
<rect x="650" y="340" width="70" height="18" fill="#f5f8fe" stroke="#ffffff" stroke-width="1"/>
<text class="small" text-anchor="middle" x="685.0" y="353">-0.07</text>
<text text-anchor="end" x="222" y="371">Pattern4 17. KDM6B</text>
<rect x="230" y="358" width="70" height="18" fill="#f4f7fe" stroke="#ffffff" stroke-width="1"/>
<text class="small" text-anchor="middle" x="265.0" y="371">-0.08</text>
<rect x="300" y="358" width="70" height="18" fill="#e5ecfd" stroke="#ffffff" stroke-width="1"/>
<text class="small" text-anchor="middle" x="335.0" y="371">-0.18</text>
<rect x="370" y="358" width="70" height="18" fill="#eaf0fd" stroke="#ffffff" stroke-width="1"/>
<text class="small" text-anchor="middle" x="405.0" y="371">-0.15</text>
<rect x="440" y="358" width="70" height="18" fill="#d8e3fb" stroke="#ffffff" stroke-width="1"/>
<text class="small" text-anchor="middle" x="475.0" y="371">-0.27</text>
<rect x="510" y="358" width="70" height="18" fill="#b1c7f8" stroke="#ffffff" stroke-width="1"/>
<text class="small" text-anchor="middle" x="545.0" y="371">-0.54</text>
<rect x="580" y="358" width="70" height="18" fill="#cbdafa" stroke="#ffffff" stroke-width="1"/>
<text class="small" text-anchor="middle" x="615.0" y="371">-0.36</text>
<rect x="650" y="358" width="70" height="18" fill="#b3c9f8" stroke="#ffffff" stroke-width="1"/>
<text class="small" text-anchor="middle" x="685.0" y="371">-0.52</text>
<text text-anchor="end" x="222" y="389">Pattern4 18. MCL1</text>
<rect x="230" y="376" width="70" height="18" fill="#fefeff" stroke="#ffffff" stroke-width="1"/>
<text class="small" text-anchor="middle" x="265.0" y="389">-0.00</text>
<rect x="300" y="376" width="70" height="18" fill="#ebf1fd" stroke="#ffffff" stroke-width="1"/>
<text class="small" text-anchor="middle" x="335.0" y="389">-0.14</text>
<rect x="370" y="376" width="70" height="18" fill="#fefeff" stroke="#ffffff" stroke-width="1"/>
<text class="small" text-anchor="middle" x="405.0" y="389">-0.01</text>
<rect x="440" y="376" width="70" height="18" fill="#f0f4fe" stroke="#ffffff" stroke-width="1"/>
<text class="small" text-anchor="middle" x="475.0" y="389">-0.10</text>
<rect x="510" y="376" width="70" height="18" fill="#c4d5fa" stroke="#ffffff" stroke-width="1"/>
<text class="small" text-anchor="middle" x="545.0" y="389">-0.40</text>
<rect x="580" y="376" width="70" height="18" fill="#dde7fc" stroke="#ffffff" stroke-width="1"/>
<text class="small" text-anchor="middle" x="615.0" y="389">-0.23</text>
<rect x="650" y="376" width="70" height="18" fill="#feffff" stroke="#ffffff" stroke-width="1"/>
<text class="small" text-anchor="middle" x="685.0" y="389">-0.00</text>
<text text-anchor="end" x="222" y="407">Pattern4 19. HLA-B</text>
<rect x="230" y="394" width="70" height="18" fill="#fdf9f9" stroke="#ffffff" stroke-width="1"/>
<text class="small" text-anchor="middle" x="265.0" y="407">0.04</text>
<rect x="300" y="394" width="70" height="18" fill="#f3f7fe" stroke="#ffffff" stroke-width="1"/>
<text class="small" text-anchor="middle" x="335.0" y="407">-0.08</text>
<rect x="370" y="394" width="70" height="18" fill="#fefcfc" stroke="#ffffff" stroke-width="1"/>
<text class="small" text-anchor="middle" x="405.0" y="407">0.02</text>
<rect x="440" y="394" width="70" height="18" fill="#fdf9f9" stroke="#ffffff" stroke-width="1"/>
<text class="small" text-anchor="middle" x="475.0" y="407">0.04</text>
<rect x="510" y="394" width="70" height="18" fill="#f3d9d9" stroke="#ffffff" stroke-width="1"/>
<text class="small" text-anchor="middle" x="545.0" y="407">0.25</text>
<rect x="580" y="394" width="70" height="18" fill="#e8b6b6" stroke="#ffffff" stroke-width="1"/>
<text class="small" text-anchor="middle" x="615.0" y="407">0.48</text>
<rect x="650" y="394" width="70" height="18" fill="#fcf4f4" stroke="#ffffff" stroke-width="1"/>
<text class="small" text-anchor="middle" x="685.0" y="407">0.07</text>
<text text-anchor="end" x="222" y="425">Pattern4 20. B2M</text>
<rect x="230" y="412" width="70" height="18" fill="#fcf6f6" stroke="#ffffff" stroke-width="1"/>
<text class="small" text-anchor="middle" x="265.0" y="425">0.06</text>
<rect x="300" y="412" width="70" height="18" fill="#fcfdff" stroke="#ffffff" stroke-width="1"/>
<text class="small" text-anchor="middle" x="335.0" y="425">-0.02</text>
<rect x="370" y="412" width="70" height="18" fill="#fcf6f6" stroke="#ffffff" stroke-width="1"/>
<text class="small" text-anchor="middle" x="405.0" y="425">0.06</text>
<rect x="440" y="412" width="70" height="18" fill="#faefef" stroke="#ffffff" stroke-width="1"/>
<text class="small" text-anchor="middle" x="475.0" y="425">0.10</text>
<rect x="510" y="412" width="70" height="18" fill="#eec7c7" stroke="#ffffff" stroke-width="1"/>
<text class="small" text-anchor="middle" x="545.0" y="425">0.37</text>
<rect x="580" y="412" width="70" height="18" fill="#e7b0b0" stroke="#ffffff" stroke-width="1"/>
<text class="small" text-anchor="middle" x="615.0" y="425">0.52</text>
<rect x="650" y="412" width="70" height="18" fill="#f7e6e6" stroke="#ffffff" stroke-width="1"/>
<text class="small" text-anchor="middle" x="685.0" y="425">0.17</text>
<text text-anchor="end" x="222" y="443">Pattern4 21. RPS12</text>
<rect x="230" y="430" width="70" height="18" fill="#fdf7f7" stroke="#ffffff" stroke-width="1"/>
<text class="small" text-anchor="middle" x="265.0" y="443">0.05</text>
<rect x="300" y="430" width="70" height="18" fill="#faeeee" stroke="#ffffff" stroke-width="1"/>
<text class="small" text-anchor="middle" x="335.0" y="443">0.11</text>
<rect x="370" y="430" width="70" height="18" fill="#f9ecec" stroke="#ffffff" stroke-width="1"/>
<text class="small" text-anchor="middle" x="405.0" y="443">0.12</text>
<rect x="440" y="430" width="70" height="18" fill="#fbf1f1" stroke="#ffffff" stroke-width="1"/>
<text class="small" text-anchor="middle" x="475.0" y="443">0.10</text>
<rect x="510" y="430" width="70" height="18" fill="#bfd1f9" stroke="#ffffff" stroke-width="1"/>
<text class="small" text-anchor="middle" x="545.0" y="443">-0.44</text>
<rect x="580" y="430" width="70" height="18" fill="#d2dffb" stroke="#ffffff" stroke-width="1"/>
<text class="small" text-anchor="middle" x="615.0" y="443">-0.31</text>
<rect x="650" y="430" width="70" height="18" fill="#fdf9f9" stroke="#ffffff" stroke-width="1"/>
<text class="small" text-anchor="middle" x="685.0" y="443">0.04</text>
<text text-anchor="end" x="222" y="461">Pattern4 22. CD69</text>
<rect x="230" y="448" width="70" height="18" fill="#fefafa" stroke="#ffffff" stroke-width="1"/>
<text class="small" text-anchor="middle" x="265.0" y="461">0.03</text>
<rect x="300" y="448" width="70" height="18" fill="#fefdfd" stroke="#ffffff" stroke-width="1"/>
<text class="small" text-anchor="middle" x="335.0" y="461">0.01</text>
<rect x="370" y="448" width="70" height="18" fill="#f9fbfe" stroke="#ffffff" stroke-width="1"/>
<text class="small" text-anchor="middle" x="405.0" y="461">-0.04</text>
<rect x="440" y="448" width="70" height="18" fill="#fdfafa" stroke="#ffffff" stroke-width="1"/>
<text class="small" text-anchor="middle" x="475.0" y="461">0.03</text>
<rect x="510" y="448" width="70" height="18" fill="#bbcef9" stroke="#ffffff" stroke-width="1"/>
<text class="small" text-anchor="middle" x="545.0" y="461">-0.47</text>
<rect x="580" y="448" width="70" height="18" fill="#e5aaaa" stroke="#ffffff" stroke-width="1"/>
<text class="small" text-anchor="middle" x="615.0" y="461">0.56</text>
<rect x="650" y="448" width="70" height="18" fill="#e6edfd" stroke="#ffffff" stroke-width="1"/>
<text class="small" text-anchor="middle" x="685.0" y="461">-0.17</text>
<text text-anchor="end" x="222" y="479">Pattern4 23. HLA-A</text>
<rect x="230" y="466" width="70" height="18" fill="#fdf7f7" stroke="#ffffff" stroke-width="1"/>
<text class="small" text-anchor="middle" x="265.0" y="479">0.05</text>
<rect x="300" y="466" width="70" height="18" fill="#f8fafe" stroke="#ffffff" stroke-width="1"/>
<text class="small" text-anchor="middle" x="335.0" y="479">-0.04</text>
<rect x="370" y="466" width="70" height="18" fill="#fbf3f3" stroke="#ffffff" stroke-width="1"/>
<text class="small" text-anchor="middle" x="405.0" y="479">0.08</text>
<rect x="440" y="466" width="70" height="18" fill="#faeeee" stroke="#ffffff" stroke-width="1"/>
<text class="small" text-anchor="middle" x="475.0" y="479">0.11</text>
<rect x="510" y="466" width="70" height="18" fill="#f1d1d1" stroke="#ffffff" stroke-width="1"/>
<text class="small" text-anchor="middle" x="545.0" y="479">0.31</text>
<rect x="580" y="466" width="70" height="18" fill="#e2a2a2" stroke="#ffffff" stroke-width="1"/>
<text class="small" text-anchor="middle" x="615.0" y="479">0.61</text>
<rect x="650" y="466" width="70" height="18" fill="#faefef" stroke="#ffffff" stroke-width="1"/>
<text class="small" text-anchor="middle" x="685.0" y="479">0.11</text>
<text text-anchor="end" x="222" y="497">Pattern4 24. DUSP2</text>
<rect x="230" y="484" width="70" height="18" fill="#f4dada" stroke="#ffffff" stroke-width="1"/>
<text class="small" text-anchor="middle" x="265.0" y="497">0.25</text>
<rect x="300" y="484" width="70" height="18" fill="#e0e9fc" stroke="#ffffff" stroke-width="1"/>
<text class="small" text-anchor="middle" x="335.0" y="497">-0.22</text>
<rect x="370" y="484" width="70" height="18" fill="#f3f7fe" stroke="#ffffff" stroke-width="1"/>
<text class="small" text-anchor="middle" x="405.0" y="497">-0.08</text>
<rect x="440" y="484" width="70" height="18" fill="#fbfcff" stroke="#ffffff" stroke-width="1"/>
<text class="small" text-anchor="middle" x="475.0" y="497">-0.03</text>
<rect x="510" y="484" width="70" height="18" fill="#b1c7f8" stroke="#ffffff" stroke-width="1"/>
<text class="small" text-anchor="middle" x="545.0" y="497">-0.53</text>
<rect x="580" y="484" width="70" height="18" fill="#ecc0c0" stroke="#ffffff" stroke-width="1"/>
<text class="small" text-anchor="middle" x="615.0" y="497">0.41</text>
<rect x="650" y="484" width="70" height="18" fill="#e3ebfc" stroke="#ffffff" stroke-width="1"/>
<text class="small" text-anchor="middle" x="685.0" y="497">-0.19</text>
<text text-anchor="end" x="222" y="515">Pattern4 25. CXCR4</text>
<rect x="230" y="502" width="70" height="18" fill="#f0cece" stroke="#ffffff" stroke-width="1"/>
<text class="small" text-anchor="middle" x="265.0" y="515">0.32</text>
<rect x="300" y="502" width="70" height="18" fill="#fcf4f4" stroke="#ffffff" stroke-width="1"/>
<text class="small" text-anchor="middle" x="335.0" y="515">0.07</text>
<rect x="370" y="502" width="70" height="18" fill="#fcf7f7" stroke="#ffffff" stroke-width="1"/>
<text class="small" text-anchor="middle" x="405.0" y="515">0.06</text>
<rect x="440" y="502" width="70" height="18" fill="#f5dfdf" stroke="#ffffff" stroke-width="1"/>
<text class="small" text-anchor="middle" x="475.0" y="515">0.21</text>
<rect x="510" y="502" width="70" height="18" fill="#bccff9" stroke="#ffffff" stroke-width="1"/>
<text class="small" text-anchor="middle" x="545.0" y="515">-0.46</text>
<rect x="580" y="502" width="70" height="18" fill="#ebbdbd" stroke="#ffffff" stroke-width="1"/>
<text class="small" text-anchor="middle" x="615.0" y="515">0.43</text>
<rect x="650" y="502" width="70" height="18" fill="#eec7c7" stroke="#ffffff" stroke-width="1"/>
<text class="small" text-anchor="middle" x="685.0" y="515">0.37</text>
</svg>