<svg xmlns="http://www.w3.org/2000/svg" width="760" height="600" viewBox="0 0 760 600">
<style>text{font-family:Helvetica,Arial,sans-serif;font-size:11px;fill:#111827}.title{font-size:16px;font-weight:700}.small{font-size:10px;fill:#4b5563}</style>
<rect width="100%" height="100%" fill="white"/>
<text class="title" x="20" y="28">Pattern5 top gene directionality, all experimental cells</text>
<text class="small" x="20" y="48">Color scale: blue=down, white=near 0, red=up; capped at +/-1.5 log2FC</text>
<text text-anchor="middle" x="265.0" y="58">D2</text>
<text text-anchor="middle" x="335.0" y="58">D4</text>
<text text-anchor="middle" x="405.0" y="58">D6</text>
<text text-anchor="middle" x="475.0" y="58">D8</text>
<text text-anchor="middle" x="545.0" y="58">D10</text>
<text text-anchor="middle" x="615.0" y="58">D14/15</text>
<text text-anchor="middle" x="685.0" y="58">D28</text>
<text text-anchor="end" x="222" y="83">Pattern5 1. ACTG1</text>
<rect x="230" y="70" width="70" height="18" fill="#ffffff" stroke="#ffffff" stroke-width="1"/>
<text class="small" text-anchor="middle" x="265.0" y="83">-0.00</text>
<rect x="300" y="70" width="70" height="18" fill="#fafcff" stroke="#ffffff" stroke-width="1"/>
<text class="small" text-anchor="middle" x="335.0" y="83">-0.03</text>
<rect x="370" y="70" width="70" height="18" fill="#fefcfc" stroke="#ffffff" stroke-width="1"/>
<text class="small" text-anchor="middle" x="405.0" y="83">0.02</text>
<rect x="440" y="70" width="70" height="18" fill="#f8fafe" stroke="#ffffff" stroke-width="1"/>
<text class="small" text-anchor="middle" x="475.0" y="83">-0.05</text>
<rect x="510" y="70" width="70" height="18" fill="#c0d2f9" stroke="#ffffff" stroke-width="1"/>
<text class="small" text-anchor="middle" x="545.0" y="83">-0.43</text>
<rect x="580" y="70" width="70" height="18" fill="#f3f6fe" stroke="#ffffff" stroke-width="1"/>
<text class="small" text-anchor="middle" x="615.0" y="83">-0.09</text>
<rect x="650" y="70" width="70" height="18" fill="#faf0f0" stroke="#ffffff" stroke-width="1"/>
<text class="small" text-anchor="middle" x="685.0" y="83">0.10</text>
<text text-anchor="end" x="222" y="101">Pattern5 2. GAPDH</text>
<rect x="230" y="88" width="70" height="18" fill="#fcfdff" stroke="#ffffff" stroke-width="1"/>
<text class="small" text-anchor="middle" x="265.0" y="101">-0.02</text>
<rect x="300" y="88" width="70" height="18" fill="#e3ebfc" stroke="#ffffff" stroke-width="1"/>
<text class="small" text-anchor="middle" x="335.0" y="101">-0.20</text>
<rect x="370" y="88" width="70" height="18" fill="#f9fafe" stroke="#ffffff" stroke-width="1"/>
<text class="small" text-anchor="middle" x="405.0" y="101">-0.04</text>
<rect x="440" y="88" width="70" height="18" fill="#f8fafe" stroke="#ffffff" stroke-width="1"/>
<text class="small" text-anchor="middle" x="475.0" y="101">-0.05</text>
<rect x="510" y="88" width="70" height="18" fill="#cedcfb" stroke="#ffffff" stroke-width="1"/>
<text class="small" text-anchor="middle" x="545.0" y="101">-0.34</text>
<rect x="580" y="88" width="70" height="18" fill="#f4dddd" stroke="#ffffff" stroke-width="1"/>
<text class="small" text-anchor="middle" x="615.0" y="101">0.23</text>
<rect x="650" y="88" width="70" height="18" fill="#fdf7f7" stroke="#ffffff" stroke-width="1"/>
<text class="small" text-anchor="middle" x="685.0" y="101">0.05</text>
<text text-anchor="end" x="222" y="119">Pattern5 3. LDHB</text>
<rect x="230" y="106" width="70" height="18" fill="#fcf6f6" stroke="#ffffff" stroke-width="1"/>
<text class="small" text-anchor="middle" x="265.0" y="119">0.06</text>
<rect x="300" y="106" width="70" height="18" fill="#f7e4e4" stroke="#ffffff" stroke-width="1"/>
<text class="small" text-anchor="middle" x="335.0" y="119">0.18</text>
<rect x="370" y="106" width="70" height="18" fill="#f9eded" stroke="#ffffff" stroke-width="1"/>
<text class="small" text-anchor="middle" x="405.0" y="119">0.12</text>
<rect x="440" y="106" width="70" height="18" fill="#fdf9f9" stroke="#ffffff" stroke-width="1"/>
<text class="small" text-anchor="middle" x="475.0" y="119">0.04</text>
<rect x="510" y="106" width="70" height="18" fill="#c1d3f9" stroke="#ffffff" stroke-width="1"/>
<text class="small" text-anchor="middle" x="545.0" y="119">-0.42</text>
<rect x="580" y="106" width="70" height="18" fill="#edf2fd" stroke="#ffffff" stroke-width="1"/>
<text class="small" text-anchor="middle" x="615.0" y="119">-0.12</text>
<rect x="650" y="106" width="70" height="18" fill="#fcfdff" stroke="#ffffff" stroke-width="1"/>
<text class="small" text-anchor="middle" x="685.0" y="119">-0.02</text>
<text text-anchor="end" x="222" y="137">Pattern5 4. ARPC1B</text>
<rect x="230" y="124" width="70" height="18" fill="#e6edfd" stroke="#ffffff" stroke-width="1"/>
<text class="small" text-anchor="middle" x="265.0" y="137">-0.17</text>
<rect x="300" y="124" width="70" height="18" fill="#d1defb" stroke="#ffffff" stroke-width="1"/>
<text class="small" text-anchor="middle" x="335.0" y="137">-0.32</text>
<rect x="370" y="124" width="70" height="18" fill="#e1eafc" stroke="#ffffff" stroke-width="1"/>
<text class="small" text-anchor="middle" x="405.0" y="137">-0.21</text>
<rect x="440" y="124" width="70" height="18" fill="#dde7fc" stroke="#ffffff" stroke-width="1"/>
<text class="small" text-anchor="middle" x="475.0" y="137">-0.23</text>
<rect x="510" y="124" width="70" height="18" fill="#d9e4fc" stroke="#ffffff" stroke-width="1"/>
<text class="small" text-anchor="middle" x="545.0" y="137">-0.26</text>
<rect x="580" y="124" width="70" height="18" fill="#f2f6fe" stroke="#ffffff" stroke-width="1"/>
<text class="small" text-anchor="middle" x="615.0" y="137">-0.09</text>
<rect x="650" y="124" width="70" height="18" fill="#d0ddfb" stroke="#ffffff" stroke-width="1"/>
<text class="small" text-anchor="middle" x="685.0" y="137">-0.33</text>
<text text-anchor="end" x="222" y="155">Pattern5 5. COX5A</text>
<rect x="230" y="142" width="70" height="18" fill="#fefeff" stroke="#ffffff" stroke-width="1"/>
<text class="small" text-anchor="middle" x="265.0" y="155">-0.01</text>
<rect x="300" y="142" width="70" height="18" fill="#f4f7fe" stroke="#ffffff" stroke-width="1"/>
<text class="small" text-anchor="middle" x="335.0" y="155">-0.08</text>
<rect x="370" y="142" width="70" height="18" fill="#fdfeff" stroke="#ffffff" stroke-width="1"/>
<text class="small" text-anchor="middle" x="405.0" y="155">-0.01</text>
<rect x="440" y="142" width="70" height="18" fill="#fffdfd" stroke="#ffffff" stroke-width="1"/>
<text class="small" text-anchor="middle" x="475.0" y="155">0.01</text>
<rect x="510" y="142" width="70" height="18" fill="#faf0f0" stroke="#ffffff" stroke-width="1"/>
<text class="small" text-anchor="middle" x="545.0" y="155">0.10</text>
<rect x="580" y="142" width="70" height="18" fill="#e5a9a9" stroke="#ffffff" stroke-width="1"/>
<text class="small" text-anchor="middle" x="615.0" y="155">0.57</text>
<rect x="650" y="142" width="70" height="18" fill="#f7e6e6" stroke="#ffffff" stroke-width="1"/>
<text class="small" text-anchor="middle" x="685.0" y="155">0.16</text>
<text text-anchor="end" x="222" y="173">Pattern5 6. C1QBP</text>
<rect x="230" y="160" width="70" height="18" fill="#fdfeff" stroke="#ffffff" stroke-width="1"/>
<text class="small" text-anchor="middle" x="265.0" y="173">-0.01</text>
<rect x="300" y="160" width="70" height="18" fill="#fcf6f6" stroke="#ffffff" stroke-width="1"/>
<text class="small" text-anchor="middle" x="335.0" y="173">0.06</text>
<rect x="370" y="160" width="70" height="18" fill="#fbf2f2" stroke="#ffffff" stroke-width="1"/>
<text class="small" text-anchor="middle" x="405.0" y="173">0.08</text>
<rect x="440" y="160" width="70" height="18" fill="#fcf4f4" stroke="#ffffff" stroke-width="1"/>
<text class="small" text-anchor="middle" x="475.0" y="173">0.07</text>
<rect x="510" y="160" width="70" height="18" fill="#e2eafc" stroke="#ffffff" stroke-width="1"/>
<text class="small" text-anchor="middle" x="545.0" y="173">-0.20</text>
<rect x="580" y="160" width="70" height="18" fill="#f1d1d1" stroke="#ffffff" stroke-width="1"/>
<text class="small" text-anchor="middle" x="615.0" y="173">0.31</text>
<rect x="650" y="160" width="70" height="18" fill="#fcfdff" stroke="#ffffff" stroke-width="1"/>
<text class="small" text-anchor="middle" x="685.0" y="173">-0.02</text>
<text text-anchor="end" x="222" y="191">Pattern5 7. NAP1L1</text>
<rect x="230" y="178" width="70" height="18" fill="#fbfcff" stroke="#ffffff" stroke-width="1"/>
<text class="small" text-anchor="middle" x="265.0" y="191">-0.03</text>
<rect x="300" y="178" width="70" height="18" fill="#f3f7fe" stroke="#ffffff" stroke-width="1"/>
<text class="small" text-anchor="middle" x="335.0" y="191">-0.08</text>
<rect x="370" y="178" width="70" height="18" fill="#fcfdff" stroke="#ffffff" stroke-width="1"/>
<text class="small" text-anchor="middle" x="405.0" y="191">-0.02</text>
<rect x="440" y="178" width="70" height="18" fill="#eef3fd" stroke="#ffffff" stroke-width="1"/>
<text class="small" text-anchor="middle" x="475.0" y="191">-0.11</text>
<rect x="510" y="178" width="70" height="18" fill="#b6cbf8" stroke="#ffffff" stroke-width="1"/>
<text class="small" text-anchor="middle" x="545.0" y="191">-0.50</text>
<rect x="580" y="178" width="70" height="18" fill="#d7e2fb" stroke="#ffffff" stroke-width="1"/>
<text class="small" text-anchor="middle" x="615.0" y="191">-0.28</text>
<rect x="650" y="178" width="70" height="18" fill="#f8fafe" stroke="#ffffff" stroke-width="1"/>
<text class="small" text-anchor="middle" x="685.0" y="191">-0.05</text>
<text text-anchor="end" x="222" y="209">Pattern5 8. ATP5G3</text>
<rect x="230" y="196" width="70" height="18" fill="#fefbfb" stroke="#ffffff" stroke-width="1"/>
<text class="small" text-anchor="middle" x="265.0" y="209">0.03</text>
<rect x="300" y="196" width="70" height="18" fill="#fafcff" stroke="#ffffff" stroke-width="1"/>
<text class="small" text-anchor="middle" x="335.0" y="209">-0.03</text>
<rect x="370" y="196" width="70" height="18" fill="#fdfafa" stroke="#ffffff" stroke-width="1"/>
<text class="small" text-anchor="middle" x="405.0" y="209">0.03</text>
<rect x="440" y="196" width="70" height="18" fill="#fefbfb" stroke="#ffffff" stroke-width="1"/>
<text class="small" text-anchor="middle" x="475.0" y="209">0.03</text>
<rect x="510" y="196" width="70" height="18" fill="#f9fbfe" stroke="#ffffff" stroke-width="1"/>
<text class="small" text-anchor="middle" x="545.0" y="209">-0.04</text>
<rect x="580" y="196" width="70" height="18" fill="#e7b2b2" stroke="#ffffff" stroke-width="1"/>
<text class="small" text-anchor="middle" x="615.0" y="209">0.51</text>
<rect x="650" y="196" width="70" height="18" fill="#f8e9e9" stroke="#ffffff" stroke-width="1"/>
<text class="small" text-anchor="middle" x="685.0" y="209">0.15</text>
<text text-anchor="end" x="222" y="227">Pattern5 9. PPIB</text>
<rect x="230" y="214" width="70" height="18" fill="#fcf4f4" stroke="#ffffff" stroke-width="1"/>
<text class="small" text-anchor="middle" x="265.0" y="227">0.07</text>
<rect x="300" y="214" width="70" height="18" fill="#fafcff" stroke="#ffffff" stroke-width="1"/>
<text class="small" text-anchor="middle" x="335.0" y="227">-0.03</text>
<rect x="370" y="214" width="70" height="18" fill="#fcf7f7" stroke="#ffffff" stroke-width="1"/>
<text class="small" text-anchor="middle" x="405.0" y="227">0.06</text>
<rect x="440" y="214" width="70" height="18" fill="#faefef" stroke="#ffffff" stroke-width="1"/>
<text class="small" text-anchor="middle" x="475.0" y="227">0.11</text>
<rect x="510" y="214" width="70" height="18" fill="#fbf2f2" stroke="#ffffff" stroke-width="1"/>
<text class="small" text-anchor="middle" x="545.0" y="227">0.09</text>
<rect x="580" y="214" width="70" height="18" fill="#e09a9a" stroke="#ffffff" stroke-width="1"/>
<text class="small" text-anchor="middle" x="615.0" y="227">0.66</text>
<rect x="650" y="214" width="70" height="18" fill="#f9ebeb" stroke="#ffffff" stroke-width="1"/>
<text class="small" text-anchor="middle" x="685.0" y="227">0.13</text>
<text text-anchor="end" x="222" y="245">Pattern5 10. H2AFY</text>
<rect x="230" y="232" width="70" height="18" fill="#f3f6fe" stroke="#ffffff" stroke-width="1"/>
<text class="small" text-anchor="middle" x="265.0" y="245">-0.08</text>
<rect x="300" y="232" width="70" height="18" fill="#d8e3fb" stroke="#ffffff" stroke-width="1"/>
<text class="small" text-anchor="middle" x="335.0" y="245">-0.27</text>
<rect x="370" y="232" width="70" height="18" fill="#dce6fc" stroke="#ffffff" stroke-width="1"/>
<text class="small" text-anchor="middle" x="405.0" y="245">-0.24</text>
<rect x="440" y="232" width="70" height="18" fill="#d7e2fb" stroke="#ffffff" stroke-width="1"/>
<text class="small" text-anchor="middle" x="475.0" y="245">-0.28</text>
<rect x="510" y="232" width="70" height="18" fill="#e9f0fd" stroke="#ffffff" stroke-width="1"/>
<text class="small" text-anchor="middle" x="545.0" y="245">-0.15</text>
<rect x="580" y="232" width="70" height="18" fill="#f3d9d9" stroke="#ffffff" stroke-width="1"/>
<text class="small" text-anchor="middle" x="615.0" y="245">0.25</text>
<rect x="650" y="232" width="70" height="18" fill="#edf2fd" stroke="#ffffff" stroke-width="1"/>
<text class="small" text-anchor="middle" x="685.0" y="245">-0.12</text>
<text text-anchor="end" x="222" y="263">Pattern5 11. COX8A</text>
<rect x="230" y="250" width="70" height="18" fill="#fefeff" stroke="#ffffff" stroke-width="1"/>
<text class="small" text-anchor="middle" x="265.0" y="263">-0.01</text>
<rect x="300" y="250" width="70" height="18" fill="#eff3fd" stroke="#ffffff" stroke-width="1"/>
<text class="small" text-anchor="middle" x="335.0" y="263">-0.11</text>
<rect x="370" y="250" width="70" height="18" fill="#fafbff" stroke="#ffffff" stroke-width="1"/>
<text class="small" text-anchor="middle" x="405.0" y="263">-0.03</text>
<rect x="440" y="250" width="70" height="18" fill="#fdfdff" stroke="#ffffff" stroke-width="1"/>
<text class="small" text-anchor="middle" x="475.0" y="263">-0.02</text>
<rect x="510" y="250" width="70" height="18" fill="#fefdfd" stroke="#ffffff" stroke-width="1"/>
<text class="small" text-anchor="middle" x="545.0" y="263">0.01</text>
<rect x="580" y="250" width="70" height="18" fill="#e6acac" stroke="#ffffff" stroke-width="1"/>
<text class="small" text-anchor="middle" x="615.0" y="263">0.55</text>
<rect x="650" y="250" width="70" height="18" fill="#f9ecec" stroke="#ffffff" stroke-width="1"/>
<text class="small" text-anchor="middle" x="685.0" y="263">0.12</text>
<text text-anchor="end" x="222" y="281">Pattern5 12. SET</text>
<rect x="230" y="268" width="70" height="18" fill="#f8fafe" stroke="#ffffff" stroke-width="1"/>
<text class="small" text-anchor="middle" x="265.0" y="281">-0.05</text>
<rect x="300" y="268" width="70" height="18" fill="#f6f9fe" stroke="#ffffff" stroke-width="1"/>
<text class="small" text-anchor="middle" x="335.0" y="281">-0.06</text>
<rect x="370" y="268" width="70" height="18" fill="#f9fbfe" stroke="#ffffff" stroke-width="1"/>
<text class="small" text-anchor="middle" x="405.0" y="281">-0.04</text>
<rect x="440" y="268" width="70" height="18" fill="#f5f8fe" stroke="#ffffff" stroke-width="1"/>
<text class="small" text-anchor="middle" x="475.0" y="281">-0.07</text>
<rect x="510" y="268" width="70" height="18" fill="#ecf1fd" stroke="#ffffff" stroke-width="1"/>
<text class="small" text-anchor="middle" x="545.0" y="281">-0.13</text>
<rect x="580" y="268" width="70" height="18" fill="#f2d4d4" stroke="#ffffff" stroke-width="1"/>
<text class="small" text-anchor="middle" x="615.0" y="281">0.29</text>
<rect x="650" y="268" width="70" height="18" fill="#fbfcff" stroke="#ffffff" stroke-width="1"/>
<text class="small" text-anchor="middle" x="685.0" y="281">-0.03</text>
<text text-anchor="end" x="222" y="299">Pattern5 13. TXN</text>
<rect x="230" y="286" width="70" height="18" fill="#eaf0fd" stroke="#ffffff" stroke-width="1"/>
<text class="small" text-anchor="middle" x="265.0" y="299">-0.14</text>
<rect x="300" y="286" width="70" height="18" fill="#d9e4fc" stroke="#ffffff" stroke-width="1"/>
<text class="small" text-anchor="middle" x="335.0" y="299">-0.26</text>
<rect x="370" y="286" width="70" height="18" fill="#edf2fd" stroke="#ffffff" stroke-width="1"/>
<text class="small" text-anchor="middle" x="405.0" y="299">-0.12</text>
<rect x="440" y="286" width="70" height="18" fill="#f6f9fe" stroke="#ffffff" stroke-width="1"/>
<text class="small" text-anchor="middle" x="475.0" y="299">-0.06</text>
<rect x="510" y="286" width="70" height="18" fill="#f1f5fe" stroke="#ffffff" stroke-width="1"/>
<text class="small" text-anchor="middle" x="545.0" y="299">-0.10</text>
<rect x="580" y="286" width="70" height="18" fill="#f2d6d6" stroke="#ffffff" stroke-width="1"/>
<text class="small" text-anchor="middle" x="615.0" y="299">0.27</text>
<rect x="650" y="286" width="70" height="18" fill="#dbe6fc" stroke="#ffffff" stroke-width="1"/>
<text class="small" text-anchor="middle" x="685.0" y="299">-0.24</text>
<text text-anchor="end" x="222" y="317">Pattern5 14. IDH2</text>
<rect x="230" y="304" width="70" height="18" fill="#fbf4f4" stroke="#ffffff" stroke-width="1"/>
<text class="small" text-anchor="middle" x="265.0" y="317">0.08</text>
<rect x="300" y="304" width="70" height="18" fill="#f9fbfe" stroke="#ffffff" stroke-width="1"/>
<text class="small" text-anchor="middle" x="335.0" y="317">-0.04</text>
<rect x="370" y="304" width="70" height="18" fill="#fdf9f9" stroke="#ffffff" stroke-width="1"/>
<text class="small" text-anchor="middle" x="405.0" y="317">0.04</text>
<rect x="440" y="304" width="70" height="18" fill="#fffefe" stroke="#ffffff" stroke-width="1"/>
<text class="small" text-anchor="middle" x="475.0" y="317">0.00</text>
<rect x="510" y="304" width="70" height="18" fill="#e9b9b9" stroke="#ffffff" stroke-width="1"/>
<text class="small" text-anchor="middle" x="545.0" y="317">0.46</text>
<rect x="580" y="304" width="70" height="18" fill="#cd5e5e" stroke="#ffffff" stroke-width="1"/>
<text class="small" text-anchor="middle" x="615.0" y="317">1.06</text>
<rect x="650" y="304" width="70" height="18" fill="#f4dbdb" stroke="#ffffff" stroke-width="1"/>
<text class="small" text-anchor="middle" x="685.0" y="317">0.24</text>
<text text-anchor="end" x="222" y="335">Pattern5 15. UCP2</text>
<rect x="230" y="322" width="70" height="18" fill="#f8fafe" stroke="#ffffff" stroke-width="1"/>
<text class="small" text-anchor="middle" x="265.0" y="335">-0.05</text>
<rect x="300" y="322" width="70" height="18" fill="#fbf2f2" stroke="#ffffff" stroke-width="1"/>
<text class="small" text-anchor="middle" x="335.0" y="335">0.09</text>
<rect x="370" y="322" width="70" height="18" fill="#f9ecec" stroke="#ffffff" stroke-width="1"/>
<text class="small" text-anchor="middle" x="405.0" y="335">0.13</text>
<rect x="440" y="322" width="70" height="18" fill="#f7e5e5" stroke="#ffffff" stroke-width="1"/>
<text class="small" text-anchor="middle" x="475.0" y="335">0.17</text>
<rect x="510" y="322" width="70" height="18" fill="#f6f9fe" stroke="#ffffff" stroke-width="1"/>
<text class="small" text-anchor="middle" x="545.0" y="335">-0.06</text>
<rect x="580" y="322" width="70" height="18" fill="#f6e1e1" stroke="#ffffff" stroke-width="1"/>
<text class="small" text-anchor="middle" x="615.0" y="335">0.20</text>
<rect x="650" y="322" width="70" height="18" fill="#f2d4d4" stroke="#ffffff" stroke-width="1"/>
<text class="small" text-anchor="middle" x="685.0" y="335">0.28</text>
<text text-anchor="end" x="222" y="353">Pattern5 16. OSTC</text>
<rect x="230" y="340" width="70" height="18" fill="#ffffff" stroke="#ffffff" stroke-width="1"/>
<text class="small" text-anchor="middle" x="265.0" y="353">0.00</text>
<rect x="300" y="340" width="70" height="18" fill="#fcfdff" stroke="#ffffff" stroke-width="1"/>
<text class="small" text-anchor="middle" x="335.0" y="353">-0.02</text>
<rect x="370" y="340" width="70" height="18" fill="#fdf9f9" stroke="#ffffff" stroke-width="1"/>
<text class="small" text-anchor="middle" x="405.0" y="353">0.04</text>
<rect x="440" y="340" width="70" height="18" fill="#fdf9f9" stroke="#ffffff" stroke-width="1"/>
<text class="small" text-anchor="middle" x="475.0" y="353">0.04</text>
<rect x="510" y="340" width="70" height="18" fill="#dfe8fc" stroke="#ffffff" stroke-width="1"/>
<text class="small" text-anchor="middle" x="545.0" y="353">-0.22</text>
<rect x="580" y="340" width="70" height="18" fill="#f6e1e1" stroke="#ffffff" stroke-width="1"/>
<text class="small" text-anchor="middle" x="615.0" y="353">0.20</text>
<rect x="650" y="340" width="70" height="18" fill="#fefdfd" stroke="#ffffff" stroke-width="1"/>
<text class="small" text-anchor="middle" x="685.0" y="353">0.01</text>
<text text-anchor="end" x="222" y="371">Pattern5 17. MIF</text>
<rect x="230" y="358" width="70" height="18" fill="#fefbfb" stroke="#ffffff" stroke-width="1"/>
<text class="small" text-anchor="middle" x="265.0" y="371">0.03</text>
<rect x="300" y="358" width="70" height="18" fill="#fefbfb" stroke="#ffffff" stroke-width="1"/>
<text class="small" text-anchor="middle" x="335.0" y="371">0.03</text>
<rect x="370" y="358" width="70" height="18" fill="#fefafa" stroke="#ffffff" stroke-width="1"/>
<text class="small" text-anchor="middle" x="405.0" y="371">0.03</text>
<rect x="440" y="358" width="70" height="18" fill="#fcf4f4" stroke="#ffffff" stroke-width="1"/>
<text class="small" text-anchor="middle" x="475.0" y="371">0.07</text>
<rect x="510" y="358" width="70" height="18" fill="#f0f4fe" stroke="#ffffff" stroke-width="1"/>
<text class="small" text-anchor="middle" x="545.0" y="371">-0.10</text>
<rect x="580" y="358" width="70" height="18" fill="#f2d4d4" stroke="#ffffff" stroke-width="1"/>
<text class="small" text-anchor="middle" x="615.0" y="371">0.29</text>
<rect x="650" y="358" width="70" height="18" fill="#fbf3f3" stroke="#ffffff" stroke-width="1"/>
<text class="small" text-anchor="middle" x="685.0" y="371">0.08</text>
<text text-anchor="end" x="222" y="389">Pattern5 18. CLIC1</text>
<rect x="230" y="376" width="70" height="18" fill="#ecf2fd" stroke="#ffffff" stroke-width="1"/>
<text class="small" text-anchor="middle" x="265.0" y="389">-0.13</text>
<rect x="300" y="376" width="70" height="18" fill="#dbe5fc" stroke="#ffffff" stroke-width="1"/>
<text class="small" text-anchor="middle" x="335.0" y="389">-0.25</text>
<rect x="370" y="376" width="70" height="18" fill="#ebf1fd" stroke="#ffffff" stroke-width="1"/>
<text class="small" text-anchor="middle" x="405.0" y="389">-0.14</text>
<rect x="440" y="376" width="70" height="18" fill="#eff4fe" stroke="#ffffff" stroke-width="1"/>
<text class="small" text-anchor="middle" x="475.0" y="389">-0.11</text>
<rect x="510" y="376" width="70" height="18" fill="#fcf7f7" stroke="#ffffff" stroke-width="1"/>
<text class="small" text-anchor="middle" x="545.0" y="389">0.06</text>
<rect x="580" y="376" width="70" height="18" fill="#f5dfdf" stroke="#ffffff" stroke-width="1"/>
<text class="small" text-anchor="middle" x="615.0" y="389">0.21</text>
<rect x="650" y="376" width="70" height="18" fill="#fcf5f5" stroke="#ffffff" stroke-width="1"/>
<text class="small" text-anchor="middle" x="685.0" y="389">0.06</text>
<text text-anchor="end" x="222" y="407">Pattern5 19. MZT2B</text>
<rect x="230" y="394" width="70" height="18" fill="#f8fafe" stroke="#ffffff" stroke-width="1"/>
<text class="small" text-anchor="middle" x="265.0" y="407">-0.05</text>
<rect x="300" y="394" width="70" height="18" fill="#fefbfb" stroke="#ffffff" stroke-width="1"/>
<text class="small" text-anchor="middle" x="335.0" y="407">0.03</text>
<rect x="370" y="394" width="70" height="18" fill="#f5f8fe" stroke="#ffffff" stroke-width="1"/>
<text class="small" text-anchor="middle" x="405.0" y="407">-0.07</text>
<rect x="440" y="394" width="70" height="18" fill="#f7e5e5" stroke="#ffffff" stroke-width="1"/>
<text class="small" text-anchor="middle" x="475.0" y="407">0.17</text>
<rect x="510" y="394" width="70" height="18" fill="#c1d3f9" stroke="#ffffff" stroke-width="1"/>
<text class="small" text-anchor="middle" x="545.0" y="407">-0.43</text>
<rect x="580" y="394" width="70" height="18" fill="#e3ebfc" stroke="#ffffff" stroke-width="1"/>
<text class="small" text-anchor="middle" x="615.0" y="407">-0.19</text>
<rect x="650" y="394" width="70" height="18" fill="#e9effd" stroke="#ffffff" stroke-width="1"/>
<text class="small" text-anchor="middle" x="685.0" y="407">-0.15</text>
<text text-anchor="end" x="222" y="425">Pattern5 20. PPM1G</text>
<rect x="230" y="412" width="70" height="18" fill="#f4f7fe" stroke="#ffffff" stroke-width="1"/>
<text class="small" text-anchor="middle" x="265.0" y="425">-0.07</text>
<rect x="300" y="412" width="70" height="18" fill="#fcfdff" stroke="#ffffff" stroke-width="1"/>
<text class="small" text-anchor="middle" x="335.0" y="425">-0.02</text>
<rect x="370" y="412" width="70" height="18" fill="#fcf6f6" stroke="#ffffff" stroke-width="1"/>
<text class="small" text-anchor="middle" x="405.0" y="425">0.06</text>
<rect x="440" y="412" width="70" height="18" fill="#fbfcff" stroke="#ffffff" stroke-width="1"/>
<text class="small" text-anchor="middle" x="475.0" y="425">-0.03</text>
<rect x="510" y="412" width="70" height="18" fill="#e1e9fc" stroke="#ffffff" stroke-width="1"/>
<text class="small" text-anchor="middle" x="545.0" y="425">-0.21</text>
<rect x="580" y="412" width="70" height="18" fill="#edc4c4" stroke="#ffffff" stroke-width="1"/>
<text class="small" text-anchor="middle" x="615.0" y="425">0.39</text>
<rect x="650" y="412" width="70" height="18" fill="#fbf2f2" stroke="#ffffff" stroke-width="1"/>
<text class="small" text-anchor="middle" x="685.0" y="425">0.09</text>
<text text-anchor="end" x="222" y="443">Pattern5 21. PDIA6</text>
<rect x="230" y="430" width="70" height="18" fill="#fcf4f4" stroke="#ffffff" stroke-width="1"/>
<text class="small" text-anchor="middle" x="265.0" y="443">0.07</text>
<rect x="300" y="430" width="70" height="18" fill="#f4f7fe" stroke="#ffffff" stroke-width="1"/>
<text class="small" text-anchor="middle" x="335.0" y="443">-0.07</text>
<rect x="370" y="430" width="70" height="18" fill="#fefdfd" stroke="#ffffff" stroke-width="1"/>
<text class="small" text-anchor="middle" x="405.0" y="443">0.01</text>
<rect x="440" y="430" width="70" height="18" fill="#fdf8f8" stroke="#ffffff" stroke-width="1"/>
<text class="small" text-anchor="middle" x="475.0" y="443">0.05</text>
<rect x="510" y="430" width="70" height="18" fill="#f9eded" stroke="#ffffff" stroke-width="1"/>
<text class="small" text-anchor="middle" x="545.0" y="443">0.12</text>
<rect x="580" y="430" width="70" height="18" fill="#e4a8a8" stroke="#ffffff" stroke-width="1"/>
<text class="small" text-anchor="middle" x="615.0" y="443">0.58</text>
<rect x="650" y="430" width="70" height="18" fill="#fdf7f7" stroke="#ffffff" stroke-width="1"/>
<text class="small" text-anchor="middle" x="685.0" y="443">0.05</text>
<text text-anchor="end" x="222" y="461">Pattern5 22. DUT</text>
<rect x="230" y="448" width="70" height="18" fill="#f8fafe" stroke="#ffffff" stroke-width="1"/>
<text class="small" text-anchor="middle" x="265.0" y="461">-0.05</text>
<rect x="300" y="448" width="70" height="18" fill="#fcfdff" stroke="#ffffff" stroke-width="1"/>
<text class="small" text-anchor="middle" x="335.0" y="461">-0.02</text>
<rect x="370" y="448" width="70" height="18" fill="#fefeff" stroke="#ffffff" stroke-width="1"/>
<text class="small" text-anchor="middle" x="405.0" y="461">-0.01</text>
<rect x="440" y="448" width="70" height="18" fill="#ffffff" stroke="#ffffff" stroke-width="1"/>
<text class="small" text-anchor="middle" x="475.0" y="461">-0.00</text>
<rect x="510" y="448" width="70" height="18" fill="#d8e3fb" stroke="#ffffff" stroke-width="1"/>
<text class="small" text-anchor="middle" x="545.0" y="461">-0.27</text>
<rect x="580" y="448" width="70" height="18" fill="#df9999" stroke="#ffffff" stroke-width="1"/>
<text class="small" text-anchor="middle" x="615.0" y="461">0.68</text>
<rect x="650" y="448" width="70" height="18" fill="#fcfdff" stroke="#ffffff" stroke-width="1"/>
<text class="small" text-anchor="middle" x="685.0" y="461">-0.02</text>
<text text-anchor="end" x="222" y="479">Pattern5 23. SNX3</text>
<rect x="230" y="466" width="70" height="18" fill="#f0f5fe" stroke="#ffffff" stroke-width="1"/>
<text class="small" text-anchor="middle" x="265.0" y="479">-0.10</text>
<rect x="300" y="466" width="70" height="18" fill="#fefeff" stroke="#ffffff" stroke-width="1"/>
<text class="small" text-anchor="middle" x="335.0" y="479">-0.01</text>
<rect x="370" y="466" width="70" height="18" fill="#f7f9fe" stroke="#ffffff" stroke-width="1"/>
<text class="small" text-anchor="middle" x="405.0" y="479">-0.06</text>
<rect x="440" y="466" width="70" height="18" fill="#fcf4f4" stroke="#ffffff" stroke-width="1"/>
<text class="small" text-anchor="middle" x="475.0" y="479">0.07</text>
<rect x="510" y="466" width="70" height="18" fill="#fefbfb" stroke="#ffffff" stroke-width="1"/>
<text class="small" text-anchor="middle" x="545.0" y="479">0.02</text>
<rect x="580" y="466" width="70" height="18" fill="#f9ebeb" stroke="#ffffff" stroke-width="1"/>
<text class="small" text-anchor="middle" x="615.0" y="479">0.13</text>
<rect x="650" y="466" width="70" height="18" fill="#f6e3e3" stroke="#ffffff" stroke-width="1"/>
<text class="small" text-anchor="middle" x="685.0" y="479">0.19</text>
<text text-anchor="end" x="222" y="497">Pattern5 24. NDUFB3</text>
<rect x="230" y="484" width="70" height="18" fill="#fafbff" stroke="#ffffff" stroke-width="1"/>
<text class="small" text-anchor="middle" x="265.0" y="497">-0.04</text>
<rect x="300" y="484" width="70" height="18" fill="#f1f5fe" stroke="#ffffff" stroke-width="1"/>
<text class="small" text-anchor="middle" x="335.0" y="497">-0.10</text>
<rect x="370" y="484" width="70" height="18" fill="#f7f9fe" stroke="#ffffff" stroke-width="1"/>
<text class="small" text-anchor="middle" x="405.0" y="497">-0.06</text>
<rect x="440" y="484" width="70" height="18" fill="#f3f7fe" stroke="#ffffff" stroke-width="1"/>
<text class="small" text-anchor="middle" x="475.0" y="497">-0.08</text>
<rect x="510" y="484" width="70" height="18" fill="#f0f5fe" stroke="#ffffff" stroke-width="1"/>
<text class="small" text-anchor="middle" x="545.0" y="497">-0.10</text>
<rect x="580" y="484" width="70" height="18" fill="#e9b8b8" stroke="#ffffff" stroke-width="1"/>
<text class="small" text-anchor="middle" x="615.0" y="497">0.47</text>
<rect x="650" y="484" width="70" height="18" fill="#f4f7fe" stroke="#ffffff" stroke-width="1"/>
<text class="small" text-anchor="middle" x="685.0" y="497">-0.07</text>
<text text-anchor="end" x="222" y="515">Pattern5 25. GNG5</text>
<rect x="230" y="502" width="70" height="18" fill="#e7eefd" stroke="#ffffff" stroke-width="1"/>
<text class="small" text-anchor="middle" x="265.0" y="515">-0.17</text>
<rect x="300" y="502" width="70" height="18" fill="#cfddfb" stroke="#ffffff" stroke-width="1"/>
<text class="small" text-anchor="middle" x="335.0" y="515">-0.33</text>
<rect x="370" y="502" width="70" height="18" fill="#e1eafc" stroke="#ffffff" stroke-width="1"/>
<text class="small" text-anchor="middle" x="405.0" y="515">-0.20</text>
<rect x="440" y="502" width="70" height="18" fill="#e0e9fc" stroke="#ffffff" stroke-width="1"/>
<text class="small" text-anchor="middle" x="475.0" y="515">-0.21</text>
<rect x="510" y="502" width="70" height="18" fill="#fbf2f2" stroke="#ffffff" stroke-width="1"/>
<text class="small" text-anchor="middle" x="545.0" y="515">0.09</text>
<rect x="580" y="502" width="70" height="18" fill="#f5e0e0" stroke="#ffffff" stroke-width="1"/>
<text class="small" text-anchor="middle" x="615.0" y="515">0.21</text>
<rect x="650" y="502" width="70" height="18" fill="#f0f4fe" stroke="#ffffff" stroke-width="1"/>
<text class="small" text-anchor="middle" x="685.0" y="515">-0.10</text>
</svg>