<svg xmlns="http://www.w3.org/2000/svg" width="760" height="600" viewBox="0 0 760 600">
<style>text{font-family:Helvetica,Arial,sans-serif;font-size:11px;fill:#111827}.title{font-size:16px;font-weight:700}.small{font-size:10px;fill:#4b5563}</style>
<rect width="100%" height="100%" fill="white"/>
<text class="title" x="20" y="28">Pattern2 top gene directionality, all experimental cells</text>
<text class="small" x="20" y="48">Color scale: blue=down, white=near 0, red=up; capped at +/-1.5 log2FC</text>
<text text-anchor="middle" x="265.0" y="58">D2</text>
<text text-anchor="middle" x="335.0" y="58">D4</text>
<text text-anchor="middle" x="405.0" y="58">D6</text>
<text text-anchor="middle" x="475.0" y="58">D8</text>
<text text-anchor="middle" x="545.0" y="58">D10</text>
<text text-anchor="middle" x="615.0" y="58">D14/15</text>
<text text-anchor="middle" x="685.0" y="58">D28</text>
<text text-anchor="end" x="222" y="83">Pattern2 1. FTH1</text>
<rect x="230" y="70" width="70" height="18" fill="#f2f5fe" stroke="#ffffff" stroke-width="1"/>
<text class="small" text-anchor="middle" x="265.0" y="83">-0.09</text>
<rect x="300" y="70" width="70" height="18" fill="#d4e0fb" stroke="#ffffff" stroke-width="1"/>
<text class="small" text-anchor="middle" x="335.0" y="83">-0.30</text>
<rect x="370" y="70" width="70" height="18" fill="#f0f4fe" stroke="#ffffff" stroke-width="1"/>
<text class="small" text-anchor="middle" x="405.0" y="83">-0.10</text>
<rect x="440" y="70" width="70" height="18" fill="#e4ecfd" stroke="#ffffff" stroke-width="1"/>
<text class="small" text-anchor="middle" x="475.0" y="83">-0.18</text>
<rect x="510" y="70" width="70" height="18" fill="#f5f8fe" stroke="#ffffff" stroke-width="1"/>
<text class="small" text-anchor="middle" x="545.0" y="83">-0.07</text>
<rect x="580" y="70" width="70" height="18" fill="#e7eefd" stroke="#ffffff" stroke-width="1"/>
<text class="small" text-anchor="middle" x="615.0" y="83">-0.17</text>
<rect x="650" y="70" width="70" height="18" fill="#fbf2f2" stroke="#ffffff" stroke-width="1"/>
<text class="small" text-anchor="middle" x="685.0" y="83">0.09</text>
<text text-anchor="end" x="222" y="101">Pattern2 2. VIM</text>
<rect x="230" y="88" width="70" height="18" fill="#e9effd" stroke="#ffffff" stroke-width="1"/>
<text class="small" text-anchor="middle" x="265.0" y="101">-0.15</text>
<rect x="300" y="88" width="70" height="18" fill="#d1defb" stroke="#ffffff" stroke-width="1"/>
<text class="small" text-anchor="middle" x="335.0" y="101">-0.32</text>
<rect x="370" y="88" width="70" height="18" fill="#f0f5fe" stroke="#ffffff" stroke-width="1"/>
<text class="small" text-anchor="middle" x="405.0" y="101">-0.10</text>
<rect x="440" y="88" width="70" height="18" fill="#edf2fd" stroke="#ffffff" stroke-width="1"/>
<text class="small" text-anchor="middle" x="475.0" y="101">-0.12</text>
<rect x="510" y="88" width="70" height="18" fill="#b8ccf8" stroke="#ffffff" stroke-width="1"/>
<text class="small" text-anchor="middle" x="545.0" y="101">-0.49</text>
<rect x="580" y="88" width="70" height="18" fill="#b3c8f8" stroke="#ffffff" stroke-width="1"/>
<text class="small" text-anchor="middle" x="615.0" y="101">-0.53</text>
<rect x="650" y="88" width="70" height="18" fill="#cfdcfb" stroke="#ffffff" stroke-width="1"/>
<text class="small" text-anchor="middle" x="685.0" y="101">-0.33</text>
<text text-anchor="end" x="222" y="119">Pattern2 3. FTL</text>
<rect x="230" y="106" width="70" height="18" fill="#f5f8fe" stroke="#ffffff" stroke-width="1"/>
<text class="small" text-anchor="middle" x="265.0" y="119">-0.07</text>
<rect x="300" y="106" width="70" height="18" fill="#cfddfb" stroke="#ffffff" stroke-width="1"/>
<text class="small" text-anchor="middle" x="335.0" y="119">-0.33</text>
<rect x="370" y="106" width="70" height="18" fill="#dbe5fc" stroke="#ffffff" stroke-width="1"/>
<text class="small" text-anchor="middle" x="405.0" y="119">-0.25</text>
<rect x="440" y="106" width="70" height="18" fill="#d1defb" stroke="#ffffff" stroke-width="1"/>
<text class="small" text-anchor="middle" x="475.0" y="119">-0.32</text>
<rect x="510" y="106" width="70" height="18" fill="#f1d0d0" stroke="#ffffff" stroke-width="1"/>
<text class="small" text-anchor="middle" x="545.0" y="119">0.31</text>
<rect x="580" y="106" width="70" height="18" fill="#f0f4fe" stroke="#ffffff" stroke-width="1"/>
<text class="small" text-anchor="middle" x="615.0" y="119">-0.11</text>
<rect x="650" y="106" width="70" height="18" fill="#f7e5e5" stroke="#ffffff" stroke-width="1"/>
<text class="small" text-anchor="middle" x="685.0" y="119">0.17</text>
<text text-anchor="end" x="222" y="137">Pattern2 4. MALAT1</text>
<rect x="230" y="124" width="70" height="18" fill="#fcf5f5" stroke="#ffffff" stroke-width="1"/>
<text class="small" text-anchor="middle" x="265.0" y="137">0.07</text>
<rect x="300" y="124" width="70" height="18" fill="#fcf4f4" stroke="#ffffff" stroke-width="1"/>
<text class="small" text-anchor="middle" x="335.0" y="137">0.07</text>
<rect x="370" y="124" width="70" height="18" fill="#fcf7f7" stroke="#ffffff" stroke-width="1"/>
<text class="small" text-anchor="middle" x="405.0" y="137">0.06</text>
<rect x="440" y="124" width="70" height="18" fill="#edf2fd" stroke="#ffffff" stroke-width="1"/>
<text class="small" text-anchor="middle" x="475.0" y="137">-0.13</text>
<rect x="510" y="124" width="70" height="18" fill="#d4e0fb" stroke="#ffffff" stroke-width="1"/>
<text class="small" text-anchor="middle" x="545.0" y="137">-0.30</text>
<rect x="580" y="124" width="70" height="18" fill="#e2eafc" stroke="#ffffff" stroke-width="1"/>
<text class="small" text-anchor="middle" x="615.0" y="137">-0.20</text>
<rect x="650" y="124" width="70" height="18" fill="#f6f9fe" stroke="#ffffff" stroke-width="1"/>
<text class="small" text-anchor="middle" x="685.0" y="137">-0.06</text>
<text text-anchor="end" x="222" y="155">Pattern2 5. MT-CO1</text>
<rect x="230" y="142" width="70" height="18" fill="#fefbfb" stroke="#ffffff" stroke-width="1"/>
<text class="small" text-anchor="middle" x="265.0" y="155">0.03</text>
<rect x="300" y="142" width="70" height="18" fill="#fbfcff" stroke="#ffffff" stroke-width="1"/>
<text class="small" text-anchor="middle" x="335.0" y="155">-0.03</text>
<rect x="370" y="142" width="70" height="18" fill="#fdf9f9" stroke="#ffffff" stroke-width="1"/>
<text class="small" text-anchor="middle" x="405.0" y="155">0.04</text>
<rect x="440" y="142" width="70" height="18" fill="#f6f8fe" stroke="#ffffff" stroke-width="1"/>
<text class="small" text-anchor="middle" x="475.0" y="155">-0.07</text>
<rect x="510" y="142" width="70" height="18" fill="#c5d6fa" stroke="#ffffff" stroke-width="1"/>
<text class="small" text-anchor="middle" x="545.0" y="155">-0.40</text>
<rect x="580" y="142" width="70" height="18" fill="#9ab6f6" stroke="#ffffff" stroke-width="1"/>
<text class="small" text-anchor="middle" x="615.0" y="155">-0.70</text>
<rect x="650" y="142" width="70" height="18" fill="#eaf0fd" stroke="#ffffff" stroke-width="1"/>
<text class="small" text-anchor="middle" x="685.0" y="155">-0.15</text>
<text text-anchor="end" x="222" y="173">Pattern2 6. SAT1</text>
<rect x="230" y="160" width="70" height="18" fill="#ecf2fd" stroke="#ffffff" stroke-width="1"/>
<text class="small" text-anchor="middle" x="265.0" y="173">-0.13</text>
<rect x="300" y="160" width="70" height="18" fill="#b5caf8" stroke="#ffffff" stroke-width="1"/>
<text class="small" text-anchor="middle" x="335.0" y="173">-0.51</text>
<rect x="370" y="160" width="70" height="18" fill="#cddbfa" stroke="#ffffff" stroke-width="1"/>
<text class="small" text-anchor="middle" x="405.0" y="173">-0.34</text>
<rect x="440" y="160" width="70" height="18" fill="#cddbfa" stroke="#ffffff" stroke-width="1"/>
<text class="small" text-anchor="middle" x="475.0" y="173">-0.35</text>
<rect x="510" y="160" width="70" height="18" fill="#e8b6b6" stroke="#ffffff" stroke-width="1"/>
<text class="small" text-anchor="middle" x="545.0" y="173">0.48</text>
<rect x="580" y="160" width="70" height="18" fill="#f1d1d1" stroke="#ffffff" stroke-width="1"/>
<text class="small" text-anchor="middle" x="615.0" y="173">0.31</text>
<rect x="650" y="160" width="70" height="18" fill="#f8eaea" stroke="#ffffff" stroke-width="1"/>
<text class="small" text-anchor="middle" x="685.0" y="173">0.14</text>
<text text-anchor="end" x="222" y="191">Pattern2 7. NEAT1</text>
<rect x="230" y="178" width="70" height="18" fill="#f2f6fe" stroke="#ffffff" stroke-width="1"/>
<text class="small" text-anchor="middle" x="265.0" y="191">-0.09</text>
<rect x="300" y="178" width="70" height="18" fill="#c5d5fa" stroke="#ffffff" stroke-width="1"/>
<text class="small" text-anchor="middle" x="335.0" y="191">-0.40</text>
<rect x="370" y="178" width="70" height="18" fill="#cedcfa" stroke="#ffffff" stroke-width="1"/>
<text class="small" text-anchor="middle" x="405.0" y="191">-0.34</text>
<rect x="440" y="178" width="70" height="18" fill="#aac2f7" stroke="#ffffff" stroke-width="1"/>
<text class="small" text-anchor="middle" x="475.0" y="191">-0.59</text>
<rect x="510" y="178" width="70" height="18" fill="#c7d7fa" stroke="#ffffff" stroke-width="1"/>
<text class="small" text-anchor="middle" x="545.0" y="191">-0.39</text>
<rect x="580" y="178" width="70" height="18" fill="#9ebaf6" stroke="#ffffff" stroke-width="1"/>
<text class="small" text-anchor="middle" x="615.0" y="191">-0.67</text>
<rect x="650" y="178" width="70" height="18" fill="#c4d4fa" stroke="#ffffff" stroke-width="1"/>
<text class="small" text-anchor="middle" x="685.0" y="191">-0.41</text>
<text text-anchor="end" x="222" y="209">Pattern2 8. S100A6</text>
<rect x="230" y="196" width="70" height="18" fill="#e8effd" stroke="#ffffff" stroke-width="1"/>
<text class="small" text-anchor="middle" x="265.0" y="209">-0.16</text>
<rect x="300" y="196" width="70" height="18" fill="#c4d4fa" stroke="#ffffff" stroke-width="1"/>
<text class="small" text-anchor="middle" x="335.0" y="209">-0.41</text>
<rect x="370" y="196" width="70" height="18" fill="#cfdcfb" stroke="#ffffff" stroke-width="1"/>
<text class="small" text-anchor="middle" x="405.0" y="209">-0.33</text>
<rect x="440" y="196" width="70" height="18" fill="#c9d8fa" stroke="#ffffff" stroke-width="1"/>
<text class="small" text-anchor="middle" x="475.0" y="209">-0.37</text>
<rect x="510" y="196" width="70" height="18" fill="#f3dada" stroke="#ffffff" stroke-width="1"/>
<text class="small" text-anchor="middle" x="545.0" y="209">0.25</text>
<rect x="580" y="196" width="70" height="18" fill="#f2f5fe" stroke="#ffffff" stroke-width="1"/>
<text class="small" text-anchor="middle" x="615.0" y="209">-0.09</text>
<rect x="650" y="196" width="70" height="18" fill="#e3ebfc" stroke="#ffffff" stroke-width="1"/>
<text class="small" text-anchor="middle" x="685.0" y="209">-0.19</text>
<text text-anchor="end" x="222" y="227">Pattern2 9. MT-CO2</text>
<rect x="230" y="214" width="70" height="18" fill="#fcf7f7" stroke="#ffffff" stroke-width="1"/>
<text class="small" text-anchor="middle" x="265.0" y="227">0.06</text>
<rect x="300" y="214" width="70" height="18" fill="#fffefe" stroke="#ffffff" stroke-width="1"/>
<text class="small" text-anchor="middle" x="335.0" y="227">0.01</text>
<rect x="370" y="214" width="70" height="18" fill="#fdf8f8" stroke="#ffffff" stroke-width="1"/>
<text class="small" text-anchor="middle" x="405.0" y="227">0.05</text>
<rect x="440" y="214" width="70" height="18" fill="#f8fafe" stroke="#ffffff" stroke-width="1"/>
<text class="small" text-anchor="middle" x="475.0" y="227">-0.05</text>
<rect x="510" y="214" width="70" height="18" fill="#bed1f9" stroke="#ffffff" stroke-width="1"/>
<text class="small" text-anchor="middle" x="545.0" y="227">-0.44</text>
<rect x="580" y="214" width="70" height="18" fill="#cedcfa" stroke="#ffffff" stroke-width="1"/>
<text class="small" text-anchor="middle" x="615.0" y="227">-0.34</text>
<rect x="650" y="214" width="70" height="18" fill="#f0f4fe" stroke="#ffffff" stroke-width="1"/>
<text class="small" text-anchor="middle" x="685.0" y="227">-0.11</text>
<text text-anchor="end" x="222" y="245">Pattern2 10. MT-CO3</text>
<rect x="230" y="232" width="70" height="18" fill="#fcf6f6" stroke="#ffffff" stroke-width="1"/>
<text class="small" text-anchor="middle" x="265.0" y="245">0.06</text>
<rect x="300" y="232" width="70" height="18" fill="#fefdfd" stroke="#ffffff" stroke-width="1"/>
<text class="small" text-anchor="middle" x="335.0" y="245">0.01</text>
<rect x="370" y="232" width="70" height="18" fill="#fcf6f6" stroke="#ffffff" stroke-width="1"/>
<text class="small" text-anchor="middle" x="405.0" y="245">0.06</text>
<rect x="440" y="232" width="70" height="18" fill="#f6f8fe" stroke="#ffffff" stroke-width="1"/>
<text class="small" text-anchor="middle" x="475.0" y="245">-0.06</text>
<rect x="510" y="232" width="70" height="18" fill="#a8c0f7" stroke="#ffffff" stroke-width="1"/>
<text class="small" text-anchor="middle" x="545.0" y="245">-0.60</text>
<rect x="580" y="232" width="70" height="18" fill="#9fbbf6" stroke="#ffffff" stroke-width="1"/>
<text class="small" text-anchor="middle" x="615.0" y="245">-0.66</text>
<rect x="650" y="232" width="70" height="18" fill="#dfe8fc" stroke="#ffffff" stroke-width="1"/>
<text class="small" text-anchor="middle" x="685.0" y="245">-0.22</text>
<text text-anchor="end" x="222" y="263">Pattern2 11. TYROBP</text>
<rect x="230" y="250" width="70" height="18" fill="#ecf1fd" stroke="#ffffff" stroke-width="1"/>
<text class="small" text-anchor="middle" x="265.0" y="263">-0.13</text>
<rect x="300" y="250" width="70" height="18" fill="#a9c1f7" stroke="#ffffff" stroke-width="1"/>
<text class="small" text-anchor="middle" x="335.0" y="263">-0.59</text>
<rect x="370" y="250" width="70" height="18" fill="#bccff9" stroke="#ffffff" stroke-width="1"/>
<text class="small" text-anchor="middle" x="405.0" y="263">-0.46</text>
<rect x="440" y="250" width="70" height="18" fill="#b3c8f8" stroke="#ffffff" stroke-width="1"/>
<text class="small" text-anchor="middle" x="475.0" y="263">-0.52</text>
<rect x="510" y="250" width="70" height="18" fill="#f0cfcf" stroke="#ffffff" stroke-width="1"/>
<text class="small" text-anchor="middle" x="545.0" y="263">0.32</text>
<rect x="580" y="250" width="70" height="18" fill="#f9fafe" stroke="#ffffff" stroke-width="1"/>
<text class="small" text-anchor="middle" x="615.0" y="263">-0.04</text>
<rect x="650" y="250" width="70" height="18" fill="#f0f5fe" stroke="#ffffff" stroke-width="1"/>
<text class="small" text-anchor="middle" x="685.0" y="263">-0.10</text>
<text text-anchor="end" x="222" y="281">Pattern2 12. CD74</text>
<rect x="230" y="268" width="70" height="18" fill="#e6edfd" stroke="#ffffff" stroke-width="1"/>
<text class="small" text-anchor="middle" x="265.0" y="281">-0.17</text>
<rect x="300" y="268" width="70" height="18" fill="#ebf1fd" stroke="#ffffff" stroke-width="1"/>
<text class="small" text-anchor="middle" x="335.0" y="281">-0.14</text>
<rect x="370" y="268" width="70" height="18" fill="#f1f5fe" stroke="#ffffff" stroke-width="1"/>
<text class="small" text-anchor="middle" x="405.0" y="281">-0.10</text>
<rect x="440" y="268" width="70" height="18" fill="#f6f8fe" stroke="#ffffff" stroke-width="1"/>
<text class="small" text-anchor="middle" x="475.0" y="281">-0.06</text>
<rect x="510" y="268" width="70" height="18" fill="#eff4fe" stroke="#ffffff" stroke-width="1"/>
<text class="small" text-anchor="middle" x="545.0" y="281">-0.11</text>
<rect x="580" y="268" width="70" height="18" fill="#c7d7fa" stroke="#ffffff" stroke-width="1"/>
<text class="small" text-anchor="middle" x="615.0" y="281">-0.38</text>
<rect x="650" y="268" width="70" height="18" fill="#fcf6f6" stroke="#ffffff" stroke-width="1"/>
<text class="small" text-anchor="middle" x="685.0" y="281">0.06</text>
<text text-anchor="end" x="222" y="299">Pattern2 13. SRGN</text>
<rect x="230" y="286" width="70" height="18" fill="#fcf4f4" stroke="#ffffff" stroke-width="1"/>
<text class="small" text-anchor="middle" x="265.0" y="299">0.07</text>
<rect x="300" y="286" width="70" height="18" fill="#ebf1fd" stroke="#ffffff" stroke-width="1"/>
<text class="small" text-anchor="middle" x="335.0" y="299">-0.14</text>
<rect x="370" y="286" width="70" height="18" fill="#fcf4f4" stroke="#ffffff" stroke-width="1"/>
<text class="small" text-anchor="middle" x="405.0" y="299">0.07</text>
<rect x="440" y="286" width="70" height="18" fill="#fbfcff" stroke="#ffffff" stroke-width="1"/>
<text class="small" text-anchor="middle" x="475.0" y="299">-0.03</text>
<rect x="510" y="286" width="70" height="18" fill="#eaf0fd" stroke="#ffffff" stroke-width="1"/>
<text class="small" text-anchor="middle" x="545.0" y="299">-0.14</text>
<rect x="580" y="286" width="70" height="18" fill="#ffffff" stroke="#ffffff" stroke-width="1"/>
<text class="small" text-anchor="middle" x="615.0" y="299">-0.00</text>
<rect x="650" y="286" width="70" height="18" fill="#fcf5f5" stroke="#ffffff" stroke-width="1"/>
<text class="small" text-anchor="middle" x="685.0" y="299">0.07</text>
<text text-anchor="end" x="222" y="317">Pattern2 14. EEF1A1</text>
<rect x="230" y="304" width="70" height="18" fill="#fcf7f7" stroke="#ffffff" stroke-width="1"/>
<text class="small" text-anchor="middle" x="265.0" y="317">0.05</text>
<rect x="300" y="304" width="70" height="18" fill="#fcf6f6" stroke="#ffffff" stroke-width="1"/>
<text class="small" text-anchor="middle" x="335.0" y="317">0.06</text>
<rect x="370" y="304" width="70" height="18" fill="#faefef" stroke="#ffffff" stroke-width="1"/>
<text class="small" text-anchor="middle" x="405.0" y="317">0.11</text>
<rect x="440" y="304" width="70" height="18" fill="#fefafa" stroke="#ffffff" stroke-width="1"/>
<text class="small" text-anchor="middle" x="475.0" y="317">0.03</text>
<rect x="510" y="304" width="70" height="18" fill="#90b0f5" stroke="#ffffff" stroke-width="1"/>
<text class="small" text-anchor="middle" x="545.0" y="317">-0.76</text>
<rect x="580" y="304" width="70" height="18" fill="#a5bef7" stroke="#ffffff" stroke-width="1"/>
<text class="small" text-anchor="middle" x="615.0" y="317">-0.62</text>
<rect x="650" y="304" width="70" height="18" fill="#f2f5fe" stroke="#ffffff" stroke-width="1"/>
<text class="small" text-anchor="middle" x="685.0" y="317">-0.09</text>
<text text-anchor="end" x="222" y="335">Pattern2 15. S100A10</text>
<rect x="230" y="322" width="70" height="18" fill="#e8effd" stroke="#ffffff" stroke-width="1"/>
<text class="small" text-anchor="middle" x="265.0" y="335">-0.16</text>
<rect x="300" y="322" width="70" height="18" fill="#cbdafa" stroke="#ffffff" stroke-width="1"/>
<text class="small" text-anchor="middle" x="335.0" y="335">-0.35</text>
<rect x="370" y="322" width="70" height="18" fill="#dee8fc" stroke="#ffffff" stroke-width="1"/>
<text class="small" text-anchor="middle" x="405.0" y="335">-0.23</text>
<rect x="440" y="322" width="70" height="18" fill="#dae4fc" stroke="#ffffff" stroke-width="1"/>
<text class="small" text-anchor="middle" x="475.0" y="335">-0.26</text>
<rect x="510" y="322" width="70" height="18" fill="#ccdafa" stroke="#ffffff" stroke-width="1"/>
<text class="small" text-anchor="middle" x="545.0" y="335">-0.35</text>
<rect x="580" y="322" width="70" height="18" fill="#c0d2f9" stroke="#ffffff" stroke-width="1"/>
<text class="small" text-anchor="middle" x="615.0" y="335">-0.43</text>
<rect x="650" y="322" width="70" height="18" fill="#e4ecfd" stroke="#ffffff" stroke-width="1"/>
<text class="small" text-anchor="middle" x="685.0" y="335">-0.18</text>
<text text-anchor="end" x="222" y="353">Pattern2 16. LYZ</text>
<rect x="230" y="340" width="70" height="18" fill="#d1defb" stroke="#ffffff" stroke-width="1"/>
<text class="small" text-anchor="middle" x="265.0" y="353">-0.32</text>
<rect x="300" y="340" width="70" height="18" fill="#97b5f6" stroke="#ffffff" stroke-width="1"/>
<text class="small" text-anchor="middle" x="335.0" y="353">-0.71</text>
<rect x="370" y="340" width="70" height="18" fill="#b1c7f8" stroke="#ffffff" stroke-width="1"/>
<text class="small" text-anchor="middle" x="405.0" y="353">-0.53</text>
<rect x="440" y="340" width="70" height="18" fill="#a5bff7" stroke="#ffffff" stroke-width="1"/>
<text class="small" text-anchor="middle" x="475.0" y="353">-0.62</text>
<rect x="510" y="340" width="70" height="18" fill="#d1defb" stroke="#ffffff" stroke-width="1"/>
<text class="small" text-anchor="middle" x="545.0" y="353">-0.32</text>
<rect x="580" y="340" width="70" height="18" fill="#3870ed" stroke="#ffffff" stroke-width="1"/>
<text class="small" text-anchor="middle" x="615.0" y="353">-1.37</text>
<rect x="650" y="340" width="70" height="18" fill="#bfd1f9" stroke="#ffffff" stroke-width="1"/>
<text class="small" text-anchor="middle" x="685.0" y="353">-0.44</text>
<text text-anchor="end" x="222" y="371">Pattern2 17. B2M</text>
<rect x="230" y="358" width="70" height="18" fill="#fcf6f6" stroke="#ffffff" stroke-width="1"/>
<text class="small" text-anchor="middle" x="265.0" y="371">0.06</text>
<rect x="300" y="358" width="70" height="18" fill="#fcfdff" stroke="#ffffff" stroke-width="1"/>
<text class="small" text-anchor="middle" x="335.0" y="371">-0.02</text>
<rect x="370" y="358" width="70" height="18" fill="#fcf6f6" stroke="#ffffff" stroke-width="1"/>
<text class="small" text-anchor="middle" x="405.0" y="371">0.06</text>
<rect x="440" y="358" width="70" height="18" fill="#faefef" stroke="#ffffff" stroke-width="1"/>
<text class="small" text-anchor="middle" x="475.0" y="371">0.10</text>
<rect x="510" y="358" width="70" height="18" fill="#eec7c7" stroke="#ffffff" stroke-width="1"/>
<text class="small" text-anchor="middle" x="545.0" y="371">0.37</text>
<rect x="580" y="358" width="70" height="18" fill="#e7b0b0" stroke="#ffffff" stroke-width="1"/>
<text class="small" text-anchor="middle" x="615.0" y="371">0.52</text>
<rect x="650" y="358" width="70" height="18" fill="#f7e6e6" stroke="#ffffff" stroke-width="1"/>
<text class="small" text-anchor="middle" x="685.0" y="371">0.17</text>
<text text-anchor="end" x="222" y="389">Pattern2 18. TMSB10</text>
<rect x="230" y="376" width="70" height="18" fill="#fdf9f9" stroke="#ffffff" stroke-width="1"/>
<text class="small" text-anchor="middle" x="265.0" y="389">0.04</text>
<rect x="300" y="376" width="70" height="18" fill="#fefeff" stroke="#ffffff" stroke-width="1"/>
<text class="small" text-anchor="middle" x="335.0" y="389">-0.01</text>
<rect x="370" y="376" width="70" height="18" fill="#fcfdff" stroke="#ffffff" stroke-width="1"/>
<text class="small" text-anchor="middle" x="405.0" y="389">-0.02</text>
<rect x="440" y="376" width="70" height="18" fill="#fefdfd" stroke="#ffffff" stroke-width="1"/>
<text class="small" text-anchor="middle" x="475.0" y="389">0.01</text>
<rect x="510" y="376" width="70" height="18" fill="#efcaca" stroke="#ffffff" stroke-width="1"/>
<text class="small" text-anchor="middle" x="545.0" y="389">0.35</text>
<rect x="580" y="376" width="70" height="18" fill="#e9b9b9" stroke="#ffffff" stroke-width="1"/>
<text class="small" text-anchor="middle" x="615.0" y="389">0.46</text>
<rect x="650" y="376" width="70" height="18" fill="#f8e8e8" stroke="#ffffff" stroke-width="1"/>
<text class="small" text-anchor="middle" x="685.0" y="389">0.15</text>
<text text-anchor="end" x="222" y="407">Pattern2 19. ACTB</text>
<rect x="230" y="394" width="70" height="18" fill="#ffffff" stroke="#ffffff" stroke-width="1"/>
<text class="small" text-anchor="middle" x="265.0" y="407">0.00</text>
<rect x="300" y="394" width="70" height="18" fill="#f0f5fe" stroke="#ffffff" stroke-width="1"/>
<text class="small" text-anchor="middle" x="335.0" y="407">-0.10</text>
<rect x="370" y="394" width="70" height="18" fill="#f2f6fe" stroke="#ffffff" stroke-width="1"/>
<text class="small" text-anchor="middle" x="405.0" y="407">-0.09</text>
<rect x="440" y="394" width="70" height="18" fill="#fcfdff" stroke="#ffffff" stroke-width="1"/>
<text class="small" text-anchor="middle" x="475.0" y="407">-0.02</text>
<rect x="510" y="394" width="70" height="18" fill="#fcf5f5" stroke="#ffffff" stroke-width="1"/>
<text class="small" text-anchor="middle" x="545.0" y="407">0.07</text>
<rect x="580" y="394" width="70" height="18" fill="#e9b9b9" stroke="#ffffff" stroke-width="1"/>
<text class="small" text-anchor="middle" x="615.0" y="407">0.46</text>
<rect x="650" y="394" width="70" height="18" fill="#f6e3e3" stroke="#ffffff" stroke-width="1"/>
<text class="small" text-anchor="middle" x="685.0" y="407">0.19</text>
<text text-anchor="end" x="222" y="425">Pattern2 20. MT-ATP6</text>
<rect x="230" y="412" width="70" height="18" fill="#fbf3f3" stroke="#ffffff" stroke-width="1"/>
<text class="small" text-anchor="middle" x="265.0" y="425">0.08</text>
<rect x="300" y="412" width="70" height="18" fill="#fcf6f6" stroke="#ffffff" stroke-width="1"/>
<text class="small" text-anchor="middle" x="335.0" y="425">0.06</text>
<rect x="370" y="412" width="70" height="18" fill="#fcf4f4" stroke="#ffffff" stroke-width="1"/>
<text class="small" text-anchor="middle" x="405.0" y="425">0.07</text>
<rect x="440" y="412" width="70" height="18" fill="#f6f9fe" stroke="#ffffff" stroke-width="1"/>
<text class="small" text-anchor="middle" x="475.0" y="425">-0.06</text>
<rect x="510" y="412" width="70" height="18" fill="#9bb7f6" stroke="#ffffff" stroke-width="1"/>
<text class="small" text-anchor="middle" x="545.0" y="425">-0.69</text>
<rect x="580" y="412" width="70" height="18" fill="#a3bdf7" stroke="#ffffff" stroke-width="1"/>
<text class="small" text-anchor="middle" x="615.0" y="425">-0.63</text>
<rect x="650" y="412" width="70" height="18" fill="#d0ddfb" stroke="#ffffff" stroke-width="1"/>
<text class="small" text-anchor="middle" x="685.0" y="425">-0.32</text>
<text text-anchor="end" x="222" y="443">Pattern2 21. MT-ND4</text>
<rect x="230" y="430" width="70" height="18" fill="#fcf6f6" stroke="#ffffff" stroke-width="1"/>
<text class="small" text-anchor="middle" x="265.0" y="443">0.06</text>
<rect x="300" y="430" width="70" height="18" fill="#fefdfd" stroke="#ffffff" stroke-width="1"/>
<text class="small" text-anchor="middle" x="335.0" y="443">0.02</text>
<rect x="370" y="430" width="70" height="18" fill="#fbf4f4" stroke="#ffffff" stroke-width="1"/>
<text class="small" text-anchor="middle" x="405.0" y="443">0.08</text>
<rect x="440" y="430" width="70" height="18" fill="#f2f6fe" stroke="#ffffff" stroke-width="1"/>
<text class="small" text-anchor="middle" x="475.0" y="443">-0.09</text>
<rect x="510" y="430" width="70" height="18" fill="#97b5f5" stroke="#ffffff" stroke-width="1"/>
<text class="small" text-anchor="middle" x="545.0" y="443">-0.71</text>
<rect x="580" y="430" width="70" height="18" fill="#7fa3f3" stroke="#ffffff" stroke-width="1"/>
<text class="small" text-anchor="middle" x="615.0" y="443">-0.88</text>
<rect x="650" y="430" width="70" height="18" fill="#cfddfb" stroke="#ffffff" stroke-width="1"/>
<text class="small" text-anchor="middle" x="685.0" y="443">-0.33</text>
<text text-anchor="end" x="222" y="461">Pattern2 22. MT-ND2</text>
<rect x="230" y="448" width="70" height="18" fill="#f6f8fe" stroke="#ffffff" stroke-width="1"/>
<text class="small" text-anchor="middle" x="265.0" y="461">-0.06</text>
<rect x="300" y="448" width="70" height="18" fill="#e6edfd" stroke="#ffffff" stroke-width="1"/>
<text class="small" text-anchor="middle" x="335.0" y="461">-0.17</text>
<rect x="370" y="448" width="70" height="18" fill="#f0f4fe" stroke="#ffffff" stroke-width="1"/>
<text class="small" text-anchor="middle" x="405.0" y="461">-0.10</text>
<rect x="440" y="448" width="70" height="18" fill="#e1e9fc" stroke="#ffffff" stroke-width="1"/>
<text class="small" text-anchor="middle" x="475.0" y="461">-0.21</text>
<rect x="510" y="448" width="70" height="18" fill="#afc6f8" stroke="#ffffff" stroke-width="1"/>
<text class="small" text-anchor="middle" x="545.0" y="461">-0.55</text>
<rect x="580" y="448" width="70" height="18" fill="#99b6f6" stroke="#ffffff" stroke-width="1"/>
<text class="small" text-anchor="middle" x="615.0" y="461">-0.70</text>
<rect x="650" y="448" width="70" height="18" fill="#dbe5fc" stroke="#ffffff" stroke-width="1"/>
<text class="small" text-anchor="middle" x="685.0" y="461">-0.25</text>
<text text-anchor="end" x="222" y="479">Pattern2 23. CST3</text>
<rect x="230" y="466" width="70" height="18" fill="#dde6fc" stroke="#ffffff" stroke-width="1"/>
<text class="small" text-anchor="middle" x="265.0" y="479">-0.24</text>
<rect x="300" y="466" width="70" height="18" fill="#bbcef9" stroke="#ffffff" stroke-width="1"/>
<text class="small" text-anchor="middle" x="335.0" y="479">-0.47</text>
<rect x="370" y="466" width="70" height="18" fill="#bbcef9" stroke="#ffffff" stroke-width="1"/>
<text class="small" text-anchor="middle" x="405.0" y="479">-0.47</text>
<rect x="440" y="466" width="70" height="18" fill="#c8d8fa" stroke="#ffffff" stroke-width="1"/>
<text class="small" text-anchor="middle" x="475.0" y="479">-0.38</text>
<rect x="510" y="466" width="70" height="18" fill="#f0cdcd" stroke="#ffffff" stroke-width="1"/>
<text class="small" text-anchor="middle" x="545.0" y="479">0.33</text>
<rect x="580" y="466" width="70" height="18" fill="#94b3f5" stroke="#ffffff" stroke-width="1"/>
<text class="small" text-anchor="middle" x="615.0" y="479">-0.73</text>
<rect x="650" y="466" width="70" height="18" fill="#f8fafe" stroke="#ffffff" stroke-width="1"/>
<text class="small" text-anchor="middle" x="685.0" y="479">-0.05</text>
<text text-anchor="end" x="222" y="497">Pattern2 24. TMSB4X</text>
<rect x="230" y="484" width="70" height="18" fill="#fafbff" stroke="#ffffff" stroke-width="1"/>
<text class="small" text-anchor="middle" x="265.0" y="497">-0.04</text>
<rect x="300" y="484" width="70" height="18" fill="#f5f8fe" stroke="#ffffff" stroke-width="1"/>
<text class="small" text-anchor="middle" x="335.0" y="497">-0.07</text>
<rect x="370" y="484" width="70" height="18" fill="#fffefe" stroke="#ffffff" stroke-width="1"/>
<text class="small" text-anchor="middle" x="405.0" y="497">0.01</text>
<rect x="440" y="484" width="70" height="18" fill="#fefbfb" stroke="#ffffff" stroke-width="1"/>
<text class="small" text-anchor="middle" x="475.0" y="497">0.03</text>
<rect x="510" y="484" width="70" height="18" fill="#fcf5f5" stroke="#ffffff" stroke-width="1"/>
<text class="small" text-anchor="middle" x="545.0" y="497">0.07</text>
<rect x="580" y="484" width="70" height="18" fill="#f1d1d1" stroke="#ffffff" stroke-width="1"/>
<text class="small" text-anchor="middle" x="615.0" y="497">0.30</text>
<rect x="650" y="484" width="70" height="18" fill="#f8e9e9" stroke="#ffffff" stroke-width="1"/>
<text class="small" text-anchor="middle" x="685.0" y="497">0.14</text>
<text text-anchor="end" x="222" y="515">Pattern2 25. S100A11</text>
<rect x="230" y="502" width="70" height="18" fill="#d9e4fc" stroke="#ffffff" stroke-width="1"/>
<text class="small" text-anchor="middle" x="265.0" y="515">-0.26</text>
<rect x="300" y="502" width="70" height="18" fill="#c4d5fa" stroke="#ffffff" stroke-width="1"/>
<text class="small" text-anchor="middle" x="335.0" y="515">-0.40</text>
<rect x="370" y="502" width="70" height="18" fill="#e1eafc" stroke="#ffffff" stroke-width="1"/>
<text class="small" text-anchor="middle" x="405.0" y="515">-0.20</text>
<rect x="440" y="502" width="70" height="18" fill="#d8e3fb" stroke="#ffffff" stroke-width="1"/>
<text class="small" text-anchor="middle" x="475.0" y="515">-0.27</text>
<rect x="510" y="502" width="70" height="18" fill="#f8e7e7" stroke="#ffffff" stroke-width="1"/>
<text class="small" text-anchor="middle" x="545.0" y="515">0.16</text>
<rect x="580" y="502" width="70" height="18" fill="#e8effd" stroke="#ffffff" stroke-width="1"/>
<text class="small" text-anchor="middle" x="615.0" y="515">-0.16</text>
<rect x="650" y="502" width="70" height="18" fill="#ecf2fd" stroke="#ffffff" stroke-width="1"/>
<text class="small" text-anchor="middle" x="685.0" y="515">-0.13</text>
</svg>